<svg xmlns="http://www.w3.org/2000/svg" xmlns:xlink="http://www.w3.org/1999/xlink" width="2000" zoomAndPan="magnify" viewBox="0 0 1500 1499.999933" height="2000" preserveAspectRatio="xMidYMid meet" version="1.0"><defs><g/><clipPath id="111e715540"><path d="M 447.0625 410.664062 L 1053 410.664062 L 1053 991.914062 L 447.0625 991.914062 Z M 447.0625 410.664062 " clip-rule="nonzero"/></clipPath><clipPath id="d81361d89f"><path d="M 566 575 L 933 575 L 933 833 L 566 833 Z M 566 575 " clip-rule="nonzero"/></clipPath><clipPath id="04ef87a7de"><path d="M 684.03125 503.347656 L 945.324219 607.402344 L 827.117188 904.230469 L 565.824219 800.175781 Z M 684.03125 503.347656 " clip-rule="nonzero"/></clipPath><clipPath id="9a410217be"><path d="M 684.03125 503.347656 L 945.324219 607.402344 L 827.117188 904.230469 L 565.824219 800.175781 Z M 684.03125 503.347656 " clip-rule="nonzero"/></clipPath><clipPath id="a47a6a7753"><path d="M 645 773 L 716 773 L 716 790 L 645 790 Z M 645 773 " clip-rule="nonzero"/></clipPath><clipPath id="0feb2e3384"><path d="M 684.03125 503.347656 L 945.324219 607.402344 L 827.117188 904.230469 L 565.824219 800.175781 Z M 684.03125 503.347656 " clip-rule="nonzero"/></clipPath><clipPath id="921198f71d"><path d="M 684.03125 503.347656 L 945.324219 607.402344 L 827.117188 904.230469 L 565.824219 800.175781 Z M 684.03125 503.347656 " clip-rule="nonzero"/></clipPath><clipPath id="7d22344340"><path d="M 668 804 L 716 804 L 716 825 L 668 825 Z M 668 804 " clip-rule="nonzero"/></clipPath><clipPath id="3c58117222"><path d="M 684.03125 503.347656 L 945.324219 607.402344 L 827.117188 904.230469 L 565.824219 800.175781 Z M 684.03125 503.347656 " clip-rule="nonzero"/></clipPath><clipPath id="2b76514151"><path d="M 684.03125 503.347656 L 945.324219 607.402344 L 827.117188 904.230469 L 565.824219 800.175781 Z M 684.03125 503.347656 " clip-rule="nonzero"/></clipPath><clipPath id="127dc931ac"><path d="M 663 789 L 695 789 L 695 797 L 663 797 Z M 663 789 " clip-rule="nonzero"/></clipPath><clipPath id="e5c0eab498"><path d="M 684.03125 503.347656 L 945.324219 607.402344 L 827.117188 904.230469 L 565.824219 800.175781 Z M 684.03125 503.347656 " clip-rule="nonzero"/></clipPath><clipPath id="4854edce7f"><path d="M 684.03125 503.347656 L 945.324219 607.402344 L 827.117188 904.230469 L 565.824219 800.175781 Z M 684.03125 503.347656 " clip-rule="nonzero"/></clipPath><clipPath id="f4773fbf98"><path d="M 749 617 L 760 617 L 760 657 L 749 657 Z M 749 617 " clip-rule="nonzero"/></clipPath><clipPath id="f72b6b37e8"><path d="M 684.03125 503.347656 L 945.324219 607.402344 L 827.117188 904.230469 L 565.824219 800.175781 Z M 684.03125 503.347656 " clip-rule="nonzero"/></clipPath><clipPath id="000e15e03f"><path d="M 684.03125 503.347656 L 945.324219 607.402344 L 827.117188 904.230469 L 565.824219 800.175781 Z M 684.03125 503.347656 " clip-rule="nonzero"/></clipPath><clipPath id="fd01ee942d"><path d="M 763 702 L 819 702 L 819 718 L 763 718 Z M 763 702 " clip-rule="nonzero"/></clipPath><clipPath id="49e2cd7921"><path d="M 684.03125 503.347656 L 945.324219 607.402344 L 827.117188 904.230469 L 565.824219 800.175781 Z M 684.03125 503.347656 " clip-rule="nonzero"/></clipPath><clipPath id="d65355a13c"><path d="M 684.03125 503.347656 L 945.324219 607.402344 L 827.117188 904.230469 L 565.824219 800.175781 Z M 684.03125 503.347656 " clip-rule="nonzero"/></clipPath><clipPath id="7116c618b1"><path d="M 809 621 L 838 621 L 838 655 L 809 655 Z M 809 621 " clip-rule="nonzero"/></clipPath><clipPath id="f85bbef80e"><path d="M 684.03125 503.347656 L 945.324219 607.402344 L 827.117188 904.230469 L 565.824219 800.175781 Z M 684.03125 503.347656 " clip-rule="nonzero"/></clipPath><clipPath id="ef77d2008c"><path d="M 684.03125 503.347656 L 945.324219 607.402344 L 827.117188 904.230469 L 565.824219 800.175781 Z M 684.03125 503.347656 " clip-rule="nonzero"/></clipPath><clipPath id="9c20921e2b"><path d="M 854 629 L 895 629 L 895 636 L 854 636 Z M 854 629 " clip-rule="nonzero"/></clipPath><clipPath id="5e144d88a0"><path d="M 684.03125 503.347656 L 945.324219 607.402344 L 827.117188 904.230469 L 565.824219 800.175781 Z M 684.03125 503.347656 " clip-rule="nonzero"/></clipPath><clipPath id="597b5056bf"><path d="M 684.03125 503.347656 L 945.324219 607.402344 L 827.117188 904.230469 L 565.824219 800.175781 Z M 684.03125 503.347656 " clip-rule="nonzero"/></clipPath><clipPath id="c32f9de822"><path d="M 675.261719 931.394531 L 835.761719 931.394531 L 835.761719 1089.644531 L 675.261719 1089.644531 Z M 675.261719 931.394531 " clip-rule="nonzero"/></clipPath><clipPath id="583dcb208e"><path d="M 481.644531 648.679688 L 646.644531 648.679688 L 646.644531 966.527344 L 481.644531 966.527344 Z M 481.644531 648.679688 " clip-rule="nonzero"/></clipPath><clipPath id="d80345d797"><path d="M 853.699219 648.679688 L 1018.699219 648.679688 L 1018.699219 966.679688 L 853.699219 966.679688 Z M 853.699219 648.679688 " clip-rule="nonzero"/></clipPath><clipPath id="f12f3ae1f8"><path d="M 0.699219 0.679688 L 165.347656 0.679688 L 165.347656 318.527344 L 0.699219 318.527344 Z M 0.699219 0.679688 " clip-rule="nonzero"/></clipPath><clipPath id="9485c4e5bd"><rect x="0" width="166" y="0" height="319"/></clipPath></defs><rect x="-150" width="1800" fill="#ffffff" y="-149.999993" height="1799.99992" fill-opacity="1"/><rect x="-150" width="1800" fill="#f8f5f0" y="-149.999993" height="1799.99992" fill-opacity="1"/><g clip-path="url(#111e715540)"><path fill="#7d8f77" d="M 749.894531 1016.535156 C 582.996094 1016.535156 447.0625 880.597656 447.0625 713.496094 C 447.0625 546.394531 582.996094 410.664062 749.894531 410.664062 C 916.789062 410.664062 1052.726562 546.597656 1052.726562 713.496094 C 1052.933594 880.597656 916.996094 1016.535156 749.894531 1016.535156 Z M 749.894531 415.789062 C 585.664062 415.789062 452.1875 549.265625 452.1875 713.496094 C 452.1875 877.726562 585.867188 1011.40625 749.894531 1011.40625 C 913.921875 1011.40625 1047.804688 877.726562 1047.804688 713.496094 C 1047.804688 549.265625 914.125 415.789062 749.894531 415.789062 Z M 749.894531 415.789062 " fill-opacity="1" fill-rule="nonzero"/></g><g clip-path="url(#d81361d89f)"><g clip-path="url(#04ef87a7de)"><g clip-path="url(#9a410217be)"><path fill="#7d8f77" d="M 698.1875 726.917969 C 704.394531 723.464844 709.917969 720.6875 715.140625 717.425781 C 723.402344 712.269531 731.535156 706.890625 739.582031 701.398438 C 743.222656 698.910156 747.472656 696.558594 749.777344 693.046875 C 754.039062 686.558594 755.089844 679.132812 751.082031 671.820312 C 749.066406 668.03125 746.578125 664.585938 743.617188 661.476562 C 738.785156 656.511719 733.910156 651.597656 729.082031 646.625 C 715.839844 633.03125 709.304688 616.964844 711.386719 597.839844 C 711.964844 592.554688 713.179688 587.347656 715.761719 582.601562 C 717.613281 579.195312 718.417969 579.039062 722.207031 580.171875 C 730.835938 582.753906 737.316406 588.582031 743.84375 594.332031 C 750.523438 600.214844 754.492188 607.992188 758.421875 615.742188 C 763.265625 625.285156 767.214844 635.132812 767.636719 646.054688 C 768.003906 655.664062 765.125 664.632812 762.164062 673.554688 C 760.332031 679.042969 757.703125 684.226562 755.425781 689.878906 C 756.957031 688.835938 758.519531 687.84375 760.003906 686.75 C 768.71875 680.316406 777.414062 673.875 786.09375 667.425781 C 791.617188 663.328125 794.121094 657.160156 796.933594 651.246094 C 800.675781 643.375 803.335938 635.046875 806.128906 626.835938 C 811.210938 611.878906 818.886719 598.664062 830.980469 588.453125 C 839.261719 581.476562 849.128906 577.398438 859.832031 575.585938 C 863.746094 574.921875 866.59375 578.277344 865.648438 582.148438 C 865.089844 584.433594 864.074219 586.492188 862.59375 588.324219 C 857.269531 594.917969 853.933594 602.5625 851.011719 610.386719 C 848.71875 616.523438 846.472656 622.667969 843.328125 629.039062 C 846.328125 629.035156 848.667969 627.839844 850.988281 627.015625 C 863.960938 622.402344 876.996094 622.003906 890.253906 625.757812 C 902.539062 629.234375 914.851562 632.585938 927.671875 633.664062 C 932.660156 634.082031 933.695312 636.710938 931.054688 640.929688 C 927.976562 645.851562 923.003906 648.363281 918.066406 650.769531 C 899.304688 659.921875 879.71875 662.484375 859 659.179688 C 848.65625 657.535156 839.234375 653.847656 829.65625 649.757812 C 829.011719 650.207031 828.351562 650.496094 827.886719 650.984375 C 819.117188 660.226562 807.71875 663.847656 795.625 665.785156 C 792.40625 666.246094 789.53125 667.496094 787 669.542969 C 770.613281 682.617188 753.417969 694.597656 736.417969 706.84375 C 735.742188 707.332031 734.828125 707.652344 734.628906 709.25 C 737.675781 710.753906 741.203125 711.121094 744.574219 711.566406 C 754.960938 712.929688 765.15625 711.804688 774.859375 707.765625 C 784.375 703.804688 794.027344 700.390625 804.089844 698.03125 C 822.730469 693.652344 840 696.828125 856.085938 706.921875 C 860.382812 709.617188 860.398438 711.734375 856.648438 715.144531 C 856.007812 715.757812 855.316406 716.308594 854.574219 716.796875 C 842.789062 724.054688 831.121094 731.550781 817.984375 736.261719 C 812.246094 738.324219 806.328125 739.324219 800.234375 739.257812 C 788.328125 739.117188 776.5 738.167969 765.230469 733.554688 C 758.972656 730.996094 753.125 727.710938 747.691406 723.691406 C 741.867188 719.40625 735.929688 715.222656 729.457031 711.535156 C 719.4375 718.335938 709.160156 724.246094 698.566406 729.753906 C 698.828125 739.476562 694.890625 747.230469 687.675781 753.550781 C 685.460938 755.496094 682.824219 756.621094 680.199219 757.464844 C 675.328125 759.039062 670.503906 760.957031 665.277344 761.261719 C 657.910156 761.6875 651.835938 765.460938 645.285156 769.324219 C 648.863281 769.867188 651.941406 769.097656 655.019531 768.710938 C 669.679688 766.882812 684.191406 767.734375 698.085938 772.753906 C 710.953125 777.417969 723.058594 783.558594 732.816406 793.699219 C 741.40625 802.625 750.710938 810.847656 759.554688 819.535156 C 763.371094 823.277344 762.8125 825.40625 757.980469 827.933594 C 753.777344 830.148438 749.152344 830.664062 744.570312 831.007812 C 732.171875 831.9375 719.804688 832.792969 707.34375 831.746094 C 687.566406 830.078125 671.203125 821.828125 658.964844 806.226562 C 653.601562 799.394531 648.097656 792.648438 642.78125 785.796875 C 641.339844 783.949219 639.445312 782.621094 637.71875 781.097656 C 633.960938 777.792969 630.339844 776.746094 625.230469 779.164062 C 613.859375 784.539062 602.578125 790.191406 590.742188 794.597656 C 584.074219 797.050781 577.261719 799.011719 570.308594 800.480469 C 569.140625 800.742188 567.84375 801.035156 566.808594 799.925781 C 566.695312 798.351562 568.027344 798.375 568.917969 798.171875 C 594.253906 792.34375 617.28125 780.9375 639.984375 768.742188 C 644.820312 766.148438 649.769531 763.714844 654.742188 761.40625 C 659.027344 759.429688 660.433594 755.996094 660.609375 751.613281 C 660.855469 745.34375 659.722656 739.210938 658.671875 733.113281 C 657.59375 726.933594 658.328125 720.949219 660.273438 715.277344 C 663.109375 707.011719 667.082031 699.332031 674.335938 693.769531 C 679.429688 689.859375 685.339844 688.007812 691.414062 686.898438 C 695.992188 686.0625 698.839844 688.847656 698.769531 693.671875 C 698.714844 699.359375 698.328125 705.023438 697.609375 710.667969 C 696.914062 715.839844 697.582031 720.859375 698.1875 726.917969 Z M 636.316406 774.976562 C 638.683594 778.992188 642.433594 780.269531 645.050781 782.800781 C 653.316406 790.804688 663.347656 795.53125 674.347656 798.246094 C 680.875 799.855469 687.53125 800.972656 694.160156 802.113281 C 705.226562 804.019531 715.972656 806.96875 726.304688 811.378906 C 728.980469 812.519531 731.601562 813.820312 733.757812 817.800781 C 732.339844 817.050781 731.875 816.789062 731.398438 816.558594 C 719.195312 810.59375 706.328125 806.820312 693.003906 804.183594 C 687.613281 803.113281 682.082031 802.957031 676.800781 801.347656 C 668.382812 798.789062 659.875 796.484375 652.085938 792.007812 C 655.234375 796.800781 658.476562 801.363281 661.925781 805.792969 C 669.273438 815.234375 679.066406 821.023438 689.894531 825.421875 C 695.046875 827.519531 700.484375 828.519531 705.953125 828.988281 C 721.035156 830.253906 736.085938 829.3125 751.089844 827.570312 C 754.085938 827.226562 756.976562 826.441406 758.75 823.972656 C 758.707031 821.53125 757.152344 820.472656 755.878906 819.3125 C 748.394531 812.5 740.976562 805.613281 734.054688 798.242188 C 724.894531 788.480469 713.898438 781.488281 701.589844 776.535156 C 686.617188 770.515625 671.074219 768.839844 655.074219 770.90625 C 648.902344 771.6875 642.769531 772.398438 636.316406 774.976562 Z M 756.761719 678.75 C 760.371094 671.992188 761.757812 665.398438 763.519531 658.914062 C 764.941406 653.679688 765.015625 648.4375 764.511719 643.09375 C 763.746094 634.980469 760.601562 627.640625 757.371094 620.328125 C 751.527344 607.09375 743.292969 595.660156 731.171875 587.515625 C 727.464844 585.023438 723.476562 582.472656 718.601562 582.378906 C 715.9375 586.933594 714.792969 591.78125 714.105469 596.679688 C 711.660156 614.15625 717.152344 629.183594 728.421875 642.453125 C 734.394531 649.496094 741.746094 655.117188 748.007812 661.949219 C 746.433594 655.515625 743.554688 649.703125 740.285156 644.03125 C 734.957031 634.785156 730.167969 625.292969 727.742188 614.808594 C 726.753906 610.523438 726.707031 606.226562 727.34375 601.386719 C 729.863281 602.992188 729.371094 604.910156 729.402344 606.539062 C 729.496094 611.554688 730.3125 616.371094 732.238281 621.0625 C 735.074219 627.964844 738.015625 634.78125 741.898438 641.179688 C 746.6875 649.101562 750.539062 657.484375 753.023438 666.414062 C 754.085938 670.300781 754.816406 674.273438 756.761719 678.75 Z M 856.300781 710.839844 C 848.160156 702.726562 830.300781 698.425781 818.046875 698.714844 C 805.871094 699.003906 794.371094 702.730469 783.203125 707.289062 C 772.949219 711.476562 762.617188 714.933594 751.324219 714.554688 C 747.867188 714.4375 744.402344 714.445312 740.003906 713.664062 C 742.976562 717.148438 746.296875 717.996094 749.027344 719.769531 C 758.84375 726.15625 769.550781 728.0625 780.992188 727.757812 C 787.589844 727.585938 794.105469 727.292969 800.332031 724.902344 C 805.296875 722.988281 810.15625 720.886719 814.714844 718.089844 C 820.632812 714.472656 826.8125 711.386719 833.738281 710.117188 C 834.726562 709.9375 835.730469 709.253906 836.417969 710.59375 C 836.121094 711.644531 835.222656 711.886719 834.371094 712.0625 C 827.265625 713.476562 821.078125 717.023438 814.996094 720.617188 C 803.71875 727.292969 791.878906 731.261719 778.582031 730.105469 C 774.183594 729.722656 769.738281 729.855469 765.308594 729.753906 C 776.351562 735.53125 788.117188 736.742188 800.085938 736.492188 C 807.410156 736.34375 814.386719 734.609375 821.230469 731.824219 C 832.132812 727.382812 841.820312 720.722656 852.253906 715.441406 C 854.140625 714.496094 855.839844 713.148438 856.300781 710.839844 Z M 796.886719 657.574219 C 800.75 654.554688 807.707031 644.992188 809.925781 639.492188 C 815.414062 625.890625 822.332031 613.226562 832.972656 602.847656 C 835.285156 600.585938 837.816406 599.179688 840.828125 598.710938 C 841.355469 599.679688 841.234375 600.230469 840.753906 600.5 C 832.566406 605.074219 827.34375 612.382812 822.472656 620.058594 C 819.609375 624.578125 817.054688 629.21875 815.214844 634.238281 C 811.316406 644.839844 804.53125 653.570312 797.492188 662.414062 C 806.558594 660.808594 815.347656 658.816406 822.609375 652.515625 C 832.53125 643.910156 838.761719 632.730469 843.859375 621.046875 C 849.238281 608.707031 853.261719 595.78125 861.632812 584.921875 C 861.933594 584.480469 862.171875 584.007812 862.351562 583.5 C 863.839844 579.871094 862.445312 577.933594 858.609375 578.472656 C 856.855469 578.753906 855.125 579.148438 853.421875 579.667969 C 841.871094 583.003906 832.214844 589.261719 824.242188 598.289062 C 816.558594 606.988281 811.984375 617.3125 808.144531 628.050781 C 804.9375 637.070312 801.90625 646.152344 797.429688 654.660156 C 797.046875 655.429688 796.515625 656.1875 796.886719 657.574219 Z M 846.976562 652.605469 C 847.664062 654.292969 849.042969 654.238281 850.15625 654.503906 C 867.910156 658.71875 885.621094 659.34375 903.226562 653.707031 C 910.675781 651.316406 917.976562 648.566406 924.484375 644.105469 C 926.945312 642.421875 929.359375 640.632812 929.304688 636.992188 C 928.292969 636.675781 927.472656 636.261719 926.632812 636.183594 C 915.433594 635.179688 904.601562 632.53125 893.890625 629.1875 C 877.558594 624.097656 861.375 624.410156 845.429688 630.960938 C 843.621094 631.707031 841.515625 632.105469 840.414062 633.785156 C 837.855469 637.71875 835.535156 641.832031 833.1875 645.714844 C 834.355469 647.109375 835.496094 647.609375 836.636719 648.078125 C 837.605469 648.515625 838.609375 648.867188 839.640625 649.121094 C 851.914062 651.660156 863.960938 651.074219 875.753906 646.570312 C 883.445312 643.617188 891.492188 642.34375 899.671875 641.945312 C 901.417969 641.855469 903.421875 641.550781 904.863281 643.21875 C 903.621094 644.878906 902.117188 644.496094 900.753906 644.535156 C 893.25 644.726562 885.953125 646.113281 878.761719 648.242188 C 875.203125 649.300781 871.597656 650.246094 868.085938 651.417969 C 861.253906 653.695312 854.203125 653.214844 846.988281 652.609375 Z M 663.5625 758.511719 C 671.1875 758.386719 678.050781 756.601562 683.878906 753.082031 C 691.722656 748.335938 696.472656 740.871094 695.324219 731.246094 C 694.203125 721.820312 694.574219 712.515625 695.578125 703.160156 C 695.863281 700.515625 696.246094 697.863281 696.269531 695.210938 C 696.3125 690.105469 694.601562 688.65625 689.777344 689.753906 C 686.652344 690.46875 683.648438 691.523438 680.765625 692.921875 C 671.253906 697.511719 666.421875 705.78125 662.976562 715.167969 C 661.78125 718.339844 661.0625 721.613281 660.8125 724.992188 C 660.566406 728.371094 660.800781 731.714844 661.519531 735.027344 C 662.464844 739.371094 662.921875 743.769531 662.894531 748.21875 C 662.871094 749.886719 663.191406 751.558594 663.375 753.234375 C 664.3125 752.519531 664.964844 751.601562 665.335938 750.480469 C 667.835938 744 669.390625 737.234375 670.53125 730.433594 C 672.050781 721.421875 676.570312 713.839844 681.453125 706.417969 C 683.160156 703.824219 684.265625 703.363281 687.375 702.761719 C 685.289062 705.515625 683.308594 707.953125 681.511719 710.515625 C 676.082031 718.257812 673.75 727.117188 672.023438 736.269531 C 670.578125 743.910156 669 751.597656 663.5625 758.511719 Z M 663.5625 758.511719 " fill-opacity="1" fill-rule="nonzero"/></g></g></g><g clip-path="url(#a47a6a7753)"><g clip-path="url(#0feb2e3384)"><g clip-path="url(#921198f71d)"><path fill="#7d8f77" d="M 715.5625 788.96875 C 713.953125 790.128906 713.140625 789.355469 712.210938 788.914062 C 701.445312 783.796875 690.042969 780.515625 678.644531 777.203125 C 671.992188 775.257812 665.304688 776.167969 658.628906 776.832031 C 655.621094 777.117188 652.625 777.441406 649.640625 777.824219 C 648.195312 778.015625 646.820312 778.171875 645.671875 777.019531 C 649.539062 774.820312 668.90625 772.339844 675.109375 773.953125 C 688.976562 777.566406 703.09375 780.675781 715.5625 788.96875 Z M 715.5625 788.96875 " fill-opacity="1" fill-rule="nonzero"/></g></g></g><g clip-path="url(#7d22344340)"><g clip-path="url(#3c58117222)"><g clip-path="url(#2b76514151)"><path fill="#7d8f77" d="M 668.0625 804.015625 C 669.976562 804.066406 670.9375 805.46875 672.074219 806.4375 C 680.335938 813.472656 690.1875 817.507812 700.160156 821.234375 C 703.707031 822.5625 707.539062 821.972656 711.253906 821.605469 C 712.617188 821.472656 713.945312 820.890625 715.335938 821.167969 C 715.96875 823.136719 714.585938 823.589844 713.441406 823.773438 C 708.539062 824.539062 703.652344 825.007812 698.742188 823.378906 C 690.601562 820.6875 683.023438 816.84375 675.675781 812.511719 C 671.539062 810.089844 669.617188 807.8125 668.0625 804.015625 Z M 668.0625 804.015625 " fill-opacity="1" fill-rule="nonzero"/></g></g></g><g clip-path="url(#127dc931ac)"><g clip-path="url(#e5c0eab498)"><g clip-path="url(#4854edce7f)"><path fill="#7d8f77" d="M 694.964844 796.46875 C 683.453125 798.535156 673.332031 793.996094 663.144531 789.8125 C 668.71875 789.910156 673.863281 791.984375 679.082031 793.488281 C 684.304688 794.992188 689.859375 794.523438 694.964844 796.46875 Z M 694.964844 796.46875 " fill-opacity="1" fill-rule="nonzero"/></g></g></g><g clip-path="url(#f4773fbf98)"><g clip-path="url(#f72b6b37e8)"><g clip-path="url(#000e15e03f)"><path fill="#7d8f77" d="M 758.070312 656.816406 C 757.859375 643.367188 754.230469 630.667969 749.378906 617.523438 C 755.871094 623.097656 761.691406 649.710938 758.070312 656.816406 Z M 758.070312 656.816406 " fill-opacity="1" fill-rule="nonzero"/></g></g></g><g clip-path="url(#fd01ee942d)"><g clip-path="url(#49e2cd7921)"><g clip-path="url(#d65355a13c)"><path fill="#7d8f77" d="M 818.199219 703.652344 C 816.515625 705.101562 814.898438 704.457031 813.386719 704.433594 C 807.449219 704.3125 801.8125 705.550781 796.472656 708.152344 C 789.960938 711.324219 783.417969 714.5 776.371094 716.300781 C 772.003906 717.414062 767.535156 718.394531 763.039062 717.15625 C 763.003906 716.167969 763.433594 715.839844 763.957031 715.8125 C 774.636719 715.273438 784.210938 711.140625 793.582031 706.515625 C 800.761719 702.96875 808.234375 701.539062 816.183594 702.496094 C 816.921875 702.570312 817.558594 702.6875 818.199219 703.652344 Z M 818.199219 703.652344 " fill-opacity="1" fill-rule="nonzero"/></g></g></g><g clip-path="url(#7116c618b1)"><g clip-path="url(#f85bbef80e)"><g clip-path="url(#ef77d2008c)"><path fill="#7d8f77" d="M 809.816406 654.027344 C 814.976562 648.785156 821.890625 645.714844 826.414062 639.765625 C 830.757812 634.046875 834.570312 628.070312 836.980469 621.226562 C 838.566406 631.054688 824.277344 648.414062 809.816406 654.027344 Z M 809.816406 654.027344 " fill-opacity="1" fill-rule="nonzero"/></g></g></g><g clip-path="url(#9c20921e2b)"><g clip-path="url(#5e144d88a0)"><g clip-path="url(#597b5056bf)"><path fill="#7d8f77" d="M 894.515625 635.484375 C 888.144531 633.179688 881.574219 632.332031 874.941406 631.960938 C 868.308594 631.589844 861.746094 633.382812 854.59375 634.097656 C 862.410156 627.972656 886.703125 628.699219 894.515625 635.484375 Z M 894.515625 635.484375 " fill-opacity="1" fill-rule="nonzero"/></g></g></g><g clip-path="url(#c32f9de822)"><path fill="#7d8f77" d="M 835.976562 971.710938 C 835.601562 967.753906 833.945312 964.023438 833.796875 960.027344 C 833.566406 955.410156 835.25 950.664062 833.605469 946.160156 C 831.757812 940.300781 823.925781 936.238281 818.140625 935.519531 C 813.097656 935.023438 808.074219 933.941406 802.984375 934.226562 C 799.578125 934.382812 796.226562 935.023438 792.882812 935.652344 C 789.308594 936.277344 785.632812 936.433594 782.152344 937.53125 C 776.863281 939.5 771.246094 940.691406 766.410156 943.707031 C 764.835938 944.679688 760.578125 946.488281 757.816406 948.335938 C 757.304688 948.316406 756.792969 948.320312 756.296875 948.328125 C 755.332031 948.335938 754.5 948.574219 753.765625 948.960938 C 753.703125 948.925781 753.636719 948.894531 753.570312 948.859375 C 752.25 947.300781 750.414062 946.289062 748.699219 945.203125 C 746.441406 943.4375 743.800781 942.398438 741.195312 941.277344 C 738.871094 939.957031 736.363281 939.050781 733.820312 938.253906 C 731.453125 937.394531 729.144531 936.234375 726.710938 935.53125 C 723.308594 934.5 719.742188 934.246094 716.289062 933.425781 C 713.875 933.089844 711.441406 932.96875 709.003906 932.839844 C 708.171875 932.5 707.332031 932.171875 706.476562 931.890625 C 702.890625 931.113281 699.144531 931.464844 695.5 931.539062 C 694.03125 931.507812 692.679688 931.957031 691.410156 932.6875 C 691.105469 932.828125 690.808594 932.976562 690.511719 933.132812 C 690.101562 933.238281 689.691406 933.351562 689.285156 933.480469 C 685.269531 934.886719 682.558594 938.742188 681.019531 942.554688 C 680.894531 942.894531 680.785156 943.238281 680.683594 943.582031 C 680.410156 944.203125 680.167969 944.839844 679.960938 945.492188 C 679.210938 947.664062 678.914062 949.949219 679.210938 952.230469 C 679.269531 952.800781 679.292969 953.367188 679.292969 953.933594 C 679.222656 954.5625 679.140625 955.191406 679.035156 955.816406 C 678.296875 959.167969 678.078125 962.792969 677.160156 966.136719 C 676.898438 967.058594 676.707031 967.992188 676.566406 968.929688 C 676.070312 970.628906 675.625 972.347656 675.320312 974.085938 C 675.046875 977.058594 675.695312 981.519531 678.039062 983.570312 C 678.570312 983.964844 679.125 984.320312 679.699219 984.652344 C 681.371094 986.332031 683.5 987.613281 685.671875 988.375 C 688.449219 989.472656 691.253906 990.691406 694.253906 990.96875 C 698.484375 991.019531 702.804688 991.070312 706.988281 990.363281 C 716.417969 988.417969 724.929688 984.144531 732.804688 978.671875 C 739.1875 974.769531 746.207031 971.941406 752.503906 967.882812 C 751.941406 969.164062 751.394531 970.449219 750.863281 971.742188 C 749.105469 973.800781 747.160156 975.664062 745.015625 977.335938 C 742.8125 979.214844 740.898438 981.410156 738.714844 983.316406 C 737.285156 984.515625 735.800781 985.648438 734.421875 986.90625 C 732.03125 988.855469 730.09375 991.199219 728.34375 993.691406 C 727.929688 994.042969 727.519531 994.402344 727.121094 994.789062 C 725.503906 996.332031 724.132812 998.109375 722.832031 999.921875 C 721.046875 1002.300781 719.296875 1004.726562 718.085938 1007.453125 C 716.808594 1010.9375 715.160156 1014.316406 714.320312 1017.949219 C 713.582031 1022.019531 712.8125 1026.082031 712.113281 1030.183594 C 710.53125 1034.835938 709.015625 1039.503906 707.433594 1044.15625 C 707.023438 1046.664062 706.125 1049.027344 705.292969 1051.40625 C 703.113281 1053.636719 700.777344 1055.714844 698.757812 1058.109375 C 698.039062 1058.796875 697.289062 1059.449219 696.519531 1060.078125 C 695.289062 1060.816406 693.992188 1061.457031 692.816406 1062.289062 C 690.960938 1063.585938 689.21875 1065.0625 687.199219 1066.101562 C 684.484375 1067.476562 681.550781 1068.320312 678.722656 1069.421875 C 677.9375 1069.625 677.371094 1070.359375 677.523438 1071.183594 C 677.527344 1071.238281 677.542969 1071.289062 677.550781 1071.339844 C 677.277344 1071.417969 677 1071.496094 676.730469 1071.578125 C 675.980469 1071.734375 675.910156 1072.5625 676.140625 1073.164062 C 677.023438 1075.488281 678.179688 1077.707031 679.164062 1079.996094 C 679.851562 1081.527344 680.339844 1083.160156 681.230469 1084.597656 C 682.628906 1086.675781 684.992188 1087.929688 687.191406 1089.003906 C 689.34375 1090.039062 690.628906 1088.402344 691.503906 1086.742188 C 693.234375 1085.117188 694.546875 1082.402344 695.566406 1080.320312 C 695.769531 1079.851562 695.996094 1079.390625 696.230469 1078.9375 C 697.496094 1076.972656 698.585938 1074.898438 699.839844 1072.917969 C 701.488281 1070.558594 702.449219 1067.847656 703.414062 1065.160156 C 704.789062 1061.453125 707.210938 1058.207031 708.214844 1054.351562 C 708.832031 1052.679688 709.453125 1051.007812 709.992188 1049.3125 C 711.945312 1047.316406 714.089844 1045.480469 715.585938 1043.101562 C 716.597656 1041.710938 717.515625 1040.257812 718.617188 1038.929688 C 720.308594 1036.992188 722.214844 1035.21875 723.605469 1033.039062 C 725.632812 1029.914062 727.214844 1026.519531 729.683594 1023.699219 C 731.203125 1021.667969 732.390625 1019.433594 733.605469 1017.210938 C 735.273438 1014.527344 736.738281 1011.722656 738.011719 1008.828125 C 739.433594 1006.503906 740.925781 1004.214844 742.039062 1001.722656 C 743.855469 997.308594 745.566406 992.851562 747.363281 988.433594 C 747.941406 986.765625 748.378906 985.050781 748.914062 983.367188 C 749.660156 981.015625 750.945312 978.835938 751.660156 976.464844 C 751.863281 975.859375 752.046875 975.238281 752.238281 974.621094 C 753.539062 972.8125 754.679688 970.878906 755.78125 968.972656 C 755.914062 968.691406 756.039062 968.40625 756.160156 968.113281 C 756.027344 969.886719 755.910156 971.660156 755.796875 973.433594 C 755.75 974.007812 755.695312 974.582031 755.652344 975.15625 C 755.546875 976.324219 755.4375 977.492188 755.332031 978.660156 C 754.859375 981.652344 754.660156 984.664062 754.707031 987.691406 C 754.59375 989.710938 754.566406 991.734375 754.875 993.730469 C 755.253906 1000.664062 756.460938 1005.289062 760.210938 1012.769531 C 760.226562 1012.808594 760.246094 1012.84375 760.261719 1012.878906 C 761.613281 1016.167969 762.527344 1019.839844 764.527344 1022.847656 C 765.367188 1024.03125 766.257812 1025.179688 767.183594 1026.296875 C 767.757812 1027.382812 768.359375 1028.449219 769.023438 1029.488281 C 770.324219 1031.636719 772.222656 1033.304688 773.972656 1035.082031 C 775.242188 1036.371094 776.421875 1037.75 777.691406 1039.039062 C 778.097656 1042.996094 778.636719 1046.933594 779.503906 1050.816406 C 780.589844 1055.011719 781.425781 1059.269531 782.660156 1063.421875 C 783.328125 1065.691406 783.527344 1068.089844 784.027344 1070.394531 C 784.574219 1072.632812 785.542969 1074.726562 786.480469 1076.816406 C 787.0625 1078.769531 788.28125 1080.503906 790.539062 1080.378906 C 791.066406 1080.351562 791.585938 1080.273438 792.101562 1080.167969 C 793.53125 1080.226562 794.96875 1080.003906 796.382812 1079.796875 C 798.800781 1079.441406 801.316406 1079.675781 803.664062 1078.875 C 806.207031 1077.964844 808.902344 1077.058594 810.839844 1075.082031 C 811.695312 1074.21875 812.707031 1073.304688 813.449219 1072.261719 C 813.476562 1072.242188 813.507812 1072.230469 813.539062 1072.210938 C 814.480469 1071.625 815.175781 1070.652344 815.34375 1069.546875 C 815.503906 1068.480469 814.574219 1067.597656 813.933594 1066.867188 C 811.886719 1064.648438 809.875 1062.398438 807.875 1060.128906 C 805.730469 1057.71875 803.09375 1055.84375 800.796875 1053.597656 C 799.613281 1052.410156 798.421875 1051.242188 797.160156 1050.144531 C 791.398438 1045.171875 784.988281 1040.679688 779.230469 1035.820312 C 779.035156 1035.222656 778.851562 1034.625 778.671875 1034.023438 C 778.199219 1030.644531 778.039062 1027.210938 777.484375 1023.835938 C 776.984375 1020.609375 775.835938 1017.53125 774.734375 1014.472656 C 774.683594 1014.335938 774.636719 1014.199219 774.589844 1014.0625 C 774.308594 1011.847656 773.660156 1009.695312 772.75 1007.648438 C 771.78125 1004.617188 769.882812 1002.074219 768.34375 999.335938 C 766.863281 996.105469 764.914062 993.03125 763.585938 989.710938 C 763.070312 988.023438 762.824219 986.160156 762.4375 984.40625 C 761.546875 981.636719 761.285156 978.78125 761.023438 975.902344 C 760.558594 973.835938 760.382812 971.738281 760.222656 969.640625 C 760.386719 970.042969 760.5625 970.441406 760.757812 970.832031 C 762.394531 973.921875 764.917969 976.296875 767.617188 978.464844 C 769.507812 980.679688 771.636719 982.660156 774.4375 983.667969 C 774.464844 983.675781 774.492188 983.683594 774.519531 983.691406 C 774.84375 983.902344 775.167969 984.101562 775.503906 984.28125 C 780.234375 986.636719 785.363281 988.292969 790.546875 989.296875 C 793.257812 989.789062 795.921875 990.578125 798.679688 990.757812 C 803.164062 990.878906 807.640625 990.292969 812.132812 990.347656 C 815.597656 990.449219 818.84375 989.304688 822.132812 988.390625 C 826.003906 987.425781 830.183594 985.972656 832.691406 982.695312 C 834.757812 979.46875 836.257812 975.597656 835.980469 971.703125 Z M 780.222656 984.34375 C 776.371094 982.742188 772.691406 980.632812 769.5625 977.917969 C 766.945312 975.550781 765.277344 972.394531 763.734375 969.277344 C 762.964844 967.738281 762.339844 966.132812 761.757812 964.511719 C 761.941406 964.339844 762.117188 964.167969 762.285156 963.980469 C 765.261719 965.40625 768.195312 966.648438 771.054688 968.410156 C 773.109375 970.023438 775.132812 971.675781 777.40625 972.984375 C 777.605469 973.117188 777.808594 973.25 778.015625 973.378906 C 780.296875 974.902344 782.714844 976.273438 785.328125 977.125 C 786.855469 977.886719 788.394531 978.625 790.035156 979.15625 C 795.976562 981.054688 802.300781 980.171875 808.425781 980.53125 C 810.957031 980.648438 813.386719 979.925781 815.773438 979.179688 C 818.734375 978.460938 821.589844 977.316406 823.933594 975.324219 C 826.183594 973.574219 828.601562 971.878906 829.976562 969.304688 C 830.339844 968.515625 830.851562 967.566406 830.640625 966.6875 C 830.417969 966.085938 829.714844 965.941406 829.210938 966.1875 C 829.035156 966.167969 828.859375 966.140625 828.683594 966.117188 C 828.441406 965.757812 828.128906 965.386719 827.738281 965.019531 C 827.109375 964.441406 826.425781 963.929688 825.726562 963.429688 C 825.46875 962.863281 825.253906 962.277344 825.046875 961.75 C 823.304688 956.171875 828.882812 954.65625 822.359375 948.804688 C 819.207031 945.945312 815.007812 944.867188 810.90625 944.25 C 806.246094 943.121094 801.320312 942.652344 796.519531 943.28125 C 792.207031 943.90625 787.765625 943.707031 783.5625 944.96875 C 780.773438 945.84375 777.894531 946.382812 775.121094 947.316406 C 772.292969 948.300781 769.625 949.679688 766.769531 950.597656 C 765.898438 950.875 765.035156 951.167969 764.171875 951.46875 C 764.050781 951.269531 763.921875 951.074219 763.765625 950.890625 C 763.035156 949.835938 762.046875 949.203125 760.945312 948.832031 C 761.632812 948.371094 762.335938 947.921875 763.007812 947.464844 C 763.171875 947.347656 763.34375 947.246094 763.511719 947.136719 C 764.398438 946.8125 765.296875 946.53125 766.21875 946.304688 C 770.371094 944.707031 774.609375 943.367188 778.773438 941.785156 C 781.386719 941.019531 784.105469 940.730469 786.757812 940.125 C 789.128906 939.628906 791.46875 938.925781 793.867188 938.554688 C 795.707031 938.292969 797.570312 938.417969 799.425781 938.316406 C 801.972656 938.1875 804.480469 937.828125 807.050781 938.066406 C 809.324219 938.21875 811.632812 938.339844 813.902344 938.714844 C 815.78125 939.058594 817.546875 939.828125 819.34375 940.441406 C 824.664062 942.027344 827.367188 944.40625 829.925781 949.324219 C 831.222656 952.078125 829.988281 955.171875 829.984375 958.046875 C 830.160156 961.691406 832.839844 964.476562 833.46875 968.003906 C 833.875 970.636719 834.449219 973.390625 833.703125 976.011719 C 832.972656 978.117188 831.535156 979.867188 830.136719 981.5625 C 829.4375 982.34375 828.546875 982.910156 827.605469 983.351562 C 825.425781 984.429688 823.109375 985.078125 820.710938 985.457031 C 819.089844 985.828125 817.460938 986.160156 815.785156 986.171875 C 812.738281 986.054688 809.757812 986.621094 806.738281 986.890625 C 803.0625 986.898438 799.339844 987.125 795.648438 986.855469 C 793.367188 986.804688 791.070312 986.757812 788.832031 986.257812 C 785.945312 985.742188 783.027344 985.207031 780.21875 984.347656 Z M 774.664062 1024.59375 C 775.148438 1026.914062 775.78125 1029.199219 776.601562 1031.425781 C 776.726562 1031.757812 776.855469 1032.085938 776.984375 1032.414062 C 777.0625 1032.886719 777.128906 1033.363281 777.183594 1033.839844 C 776.132812 1032.734375 775.089844 1031.625 774.035156 1030.527344 C 772.640625 1029.046875 771.183594 1027.792969 769.78125 1026.332031 C 768.484375 1024.441406 767.085938 1022.617188 765.941406 1020.628906 C 764.671875 1018.210938 763.480469 1015.746094 762.429688 1013.21875 C 761.785156 1011.585938 760.972656 1010.023438 760.175781 1008.457031 C 759.917969 1007.648438 759.671875 1006.835938 759.445312 1006.011719 C 758.523438 1002.777344 757.40625 999.597656 756.851562 996.265625 C 755.917969 992.640625 756.3125 988.9375 756.773438 985.273438 C 757.195312 981.484375 757.046875 977.664062 757.605469 973.882812 C 757.988281 977.539062 758.433594 981.214844 759.382812 984.773438 C 760.390625 988.105469 761.640625 991.386719 763.160156 994.519531 C 764.34375 996.824219 765.804688 998.792969 766.957031 1001.148438 C 768.222656 1003.996094 769.722656 1006.554688 771.207031 1009.3125 C 772.585938 1012.054688 773.457031 1014.992188 774.121094 1017.980469 C 774.269531 1020.1875 774.261719 1022.410156 774.664062 1024.589844 Z M 683.09375 985.546875 C 681.285156 984.339844 679.601562 982.90625 678.605469 980.976562 C 676.671875 977.425781 677.742188 973.453125 678.054688 969.667969 C 678.058594 968.710938 678.097656 967.753906 678.183594 966.796875 C 678.832031 963.914062 680.121094 961.1875 680.410156 958.234375 C 680.417969 957.78125 680.414062 957.332031 680.402344 956.882812 C 680.417969 956.679688 680.441406 956.476562 680.445312 956.273438 C 680.472656 951.644531 680.898438 946.9375 682.46875 942.554688 C 682.476562 942.539062 682.480469 942.523438 682.488281 942.503906 C 683.722656 940.324219 685.351562 938.347656 687.152344 936.609375 C 687.65625 936.078125 688.183594 935.609375 688.730469 935.191406 C 690.496094 934.320312 692.414062 933.777344 694.398438 933.722656 C 698.511719 933.457031 702.613281 933.367188 706.707031 933.898438 C 707.046875 933.90625 707.390625 933.921875 707.730469 933.9375 C 707.972656 934.007812 708.210938 934.082031 708.449219 934.15625 C 711.902344 935.414062 715.035156 937.421875 718.609375 938.402344 C 723.09375 940.085938 727.972656 940.167969 732.621094 941.207031 C 735.730469 941.746094 738.925781 942.023438 741.769531 943.515625 C 744.109375 944.71875 746.132812 946.355469 748.441406 947.699219 C 749.664062 948.410156 750.957031 948.957031 752.246094 949.519531 C 752.335938 949.636719 752.417969 949.757812 752.5 949.882812 C 751.957031 950.394531 751.496094 951.011719 751.109375 951.6875 C 749.421875 950.769531 747.746094 949.828125 746.046875 948.925781 C 742.613281 946.765625 738.695312 945.601562 734.847656 944.421875 C 731.492188 943.832031 728.144531 943.464844 724.789062 942.75 C 722.195312 942.253906 719.597656 942.246094 716.964844 942.0625 C 714.816406 941.808594 712.644531 941.589844 710.484375 941.863281 C 709.558594 941.878906 708.644531 941.953125 707.738281 942.0625 C 705.539062 941.984375 703.339844 942.003906 701.167969 942.296875 C 698.132812 942.617188 695.148438 943.320312 692.527344 944.941406 C 690.816406 945.882812 689.066406 946.851562 687.734375 948.304688 C 686.34375 949.816406 685.828125 951.875 685.203125 953.777344 C 684.753906 955.1875 684.066406 956.5 683.488281 957.855469 C 680.9375 963.660156 679.714844 970.964844 683.824219 976.355469 C 686.492188 979.464844 691.035156 980.96875 695.015625 981.394531 C 697.585938 981.695312 700.070312 981.023438 702.640625 980.957031 C 703.660156 980.882812 704.675781 980.757812 705.6875 980.605469 C 706.792969 980.574219 707.894531 980.488281 708.980469 980.265625 C 712.855469 979.246094 716.734375 977.890625 720.308594 976.046875 C 724.46875 974 728.46875 971.664062 732.671875 969.671875 C 734.015625 969.003906 735.234375 968.117188 736.554688 967.414062 C 738.367188 966.683594 740.171875 965.824219 741.984375 965.023438 C 743.722656 964.714844 745.472656 964.46875 747.207031 964.199219 C 748.421875 964.042969 749.632812 963.855469 750.824219 963.582031 C 751 963.902344 751.191406 964.214844 751.398438 964.519531 C 749.574219 965.371094 747.8125 966.335938 746.203125 967.566406 C 743.847656 968.699219 741.773438 970.363281 739.503906 971.644531 C 736.03125 973.144531 733.113281 975.550781 729.84375 977.386719 C 727.496094 978.453125 725.410156 979.96875 723.09375 981.082031 C 720.066406 982.457031 717.09375 984.320312 713.765625 985.03125 C 709.578125 986.339844 705.34375 987.507812 700.964844 988.03125 C 698.347656 988.011719 695.691406 987.898438 693.074219 987.769531 C 690.988281 987.539062 688.960938 986.96875 686.921875 986.488281 C 685.472656 986.21875 684.210938 985.945312 683.089844 985.546875 Z M 823.777344 961.382812 C 823.824219 961.644531 823.878906 961.902344 823.9375 962.15625 C 822.9375 961.433594 821.96875 960.671875 821.167969 959.71875 C 820.25 958.625 819.523438 957.269531 818.839844 956.003906 C 818.113281 954.53125 817.898438 952.933594 817.046875 951.472656 C 816.222656 950.039062 815.082031 948.820312 813.8125 947.769531 C 811.65625 945.96875 808.824219 945.414062 806.148438 944.835938 C 805.933594 944.78125 805.714844 944.742188 805.5 944.695312 C 807.03125 944.765625 808.554688 944.886719 810.070312 945.121094 C 813.078125 945.792969 815.945312 947.015625 818.726562 948.332031 C 821.308594 949.527344 823.996094 951.867188 823.871094 954.945312 C 823.59375 957.09375 823.175781 959.25 823.777344 961.382812 Z M 828.410156 967.199219 C 828.523438 967.4375 828.582031 967.683594 828.566406 967.941406 C 828.496094 968.246094 828.394531 968.539062 828.261719 968.824219 C 828.027344 969.191406 827.652344 969.578125 827.109375 969.988281 C 823.945312 973.132812 819.464844 974.378906 815.335938 975.789062 C 813.683594 976.246094 811.957031 976.300781 810.265625 976.527344 C 808.390625 976.832031 806.5625 977.382812 804.660156 977.507812 C 801.003906 977.71875 797.359375 977.929688 793.726562 977.300781 C 791.15625 977.128906 788.605469 976.6875 786.136719 975.964844 C 784.117188 975.148438 782.34375 973.867188 780.601562 972.582031 C 777.902344 970.632812 775.175781 968.726562 772.300781 967.042969 C 770.441406 965.90625 768.617188 964.714844 766.617188 963.835938 C 765.667969 963.171875 764.6875 962.5625 763.648438 962.070312 C 764.199219 961.117188 764.640625 960.09375 764.96875 959.066406 C 765.296875 957.890625 765.238281 956.652344 765.136719 955.449219 C 765.09375 954.738281 765.023438 954.015625 764.875 953.316406 C 766.601562 952.464844 768.367188 951.730469 770.164062 951.078125 C 770.4375 951.003906 770.707031 950.925781 770.980469 950.855469 C 771.488281 950.644531 771.996094 950.457031 772.511719 950.269531 C 773.582031 949.921875 774.660156 949.59375 775.742188 949.277344 C 775.828125 949.25 775.910156 949.214844 775.996094 949.1875 C 777.273438 948.839844 778.5625 948.527344 779.855469 948.222656 C 782.753906 947.386719 785.589844 946.390625 788.617188 946.113281 C 790.789062 945.6875 792.957031 945.261719 795.171875 945.140625 C 797.816406 944.761719 800.457031 944.605469 803.074219 945.269531 C 807.023438 945.867188 811.179688 946.835938 814.386719 949.339844 C 816.148438 950.929688 816.523438 953.402344 817.449219 955.488281 C 818.605469 958.433594 820.726562 960.898438 822.933594 963.121094 C 823.367188 963.535156 824.003906 963.9375 824.695312 964.347656 C 825.421875 965.789062 826.574219 966.902344 828.410156 967.199219 Z M 825.351562 972.554688 C 822.710938 975.082031 819.144531 976.34375 815.761719 977.652344 C 813.878906 978.308594 811.859375 978.363281 809.898438 978.617188 C 807.503906 978.898438 805.113281 979.355469 802.6875 979.238281 C 801.441406 979.089844 800.1875 978.945312 798.933594 978.792969 C 799.253906 978.796875 799.574219 978.804688 799.898438 978.800781 C 802.074219 978.855469 804.199219 978.367188 806.355469 978.195312 C 808.914062 978.128906 811.519531 977.808594 813.949219 976.917969 C 817.949219 976.015625 821.875 974.789062 825.351562 972.550781 Z M 763.378906 954.019531 C 763.386719 954.113281 763.390625 954.207031 763.394531 954.300781 C 763.464844 955.765625 763.464844 957.269531 763.058594 958.675781 C 763.25 957.914062 763.332031 957.125 763.242188 956.316406 C 763.175781 955.625 763.082031 954.914062 762.941406 954.210938 C 763.089844 954.148438 763.234375 954.082031 763.378906 954.019531 Z M 757.730469 966.988281 C 757.890625 966.933594 758.046875 966.875 758.207031 966.808594 C 758.003906 967.792969 757.8125 968.773438 757.644531 969.757812 C 757.597656 969.417969 757.566406 969.078125 757.535156 968.738281 C 757.601562 968.15625 757.664062 967.570312 757.730469 966.984375 Z M 762.332031 952.105469 C 762.085938 951.496094 761.777344 950.917969 761.386719 950.390625 C 762.046875 950.714844 762.523438 951.273438 762.847656 951.925781 C 762.675781 951.988281 762.503906 952.046875 762.332031 952.105469 Z M 759.617188 950.09375 C 760.402344 950.855469 760.972656 951.699219 761.34375 952.589844 C 761.371094 952.648438 761.390625 952.710938 761.414062 952.773438 C 761.464844 952.902344 761.511719 953.035156 761.550781 953.167969 C 761.609375 953.34375 761.65625 953.515625 761.699219 953.695312 C 761.722656 953.796875 761.75 953.898438 761.769531 954.003906 C 761.796875 954.132812 761.816406 954.265625 761.832031 954.398438 C 762.058594 955.972656 761.800781 957.621094 761.199219 959.195312 C 761.132812 959.375 761.058594 959.550781 760.980469 959.730469 C 760.9375 959.828125 760.894531 959.929688 760.84375 960.03125 C 760.757812 960.21875 760.664062 960.402344 760.566406 960.589844 C 760.523438 960.671875 760.480469 960.753906 760.4375 960.839844 C 760.40625 960.890625 760.378906 960.941406 760.347656 960.992188 C 760.078125 961.285156 759.8125 961.582031 759.535156 961.867188 C 758.863281 962.523438 758.140625 963.136719 757.335938 963.621094 C 757.128906 963.703125 756.984375 963.863281 756.910156 964.050781 C 756.558594 964.109375 756.203125 964.121094 755.847656 964.054688 C 755.847656 964.050781 755.847656 964.046875 755.847656 964.042969 C 755.847656 963.996094 755.847656 963.949219 755.839844 963.902344 C 755.835938 963.894531 755.828125 963.882812 755.828125 963.875 C 755.820312 963.84375 755.804688 963.8125 755.792969 963.78125 C 755.78125 963.75 755.773438 963.71875 755.757812 963.691406 C 755.742188 963.664062 755.726562 963.644531 755.710938 963.621094 C 755.710938 963.621094 755.707031 963.617188 755.707031 963.613281 C 755.660156 963.550781 755.613281 963.484375 755.566406 963.421875 C 755.445312 963.261719 755.328125 963.101562 755.214844 962.9375 C 754.90625 962.5 754.625 962.042969 754.398438 961.554688 C 754.398438 961.550781 754.398438 961.546875 754.394531 961.542969 C 754.300781 961.339844 754.214844 961.132812 754.140625 960.914062 C 753.550781 959.027344 753.324219 957.070312 753.585938 955.34375 C 753.597656 955.265625 753.613281 955.195312 753.625 955.117188 C 753.664062 954.917969 753.707031 954.71875 753.757812 954.527344 C 753.769531 954.46875 753.785156 954.410156 753.800781 954.351562 C 753.863281 954.125 753.941406 953.898438 754.027344 953.679688 C 754.058594 953.613281 754.089844 953.542969 754.117188 953.476562 C 754.433594 952.757812 754.871094 952.117188 755.453125 951.59375 C 755.875 952.441406 757.328125 952.523438 757.667969 951.410156 C 758.117188 950.953125 758.613281 950.53125 759.132812 950.128906 C 759.289062 950.113281 759.449219 950.101562 759.613281 950.09375 Z M 740.785156 963.824219 C 735.363281 964.375 730.511719 967.285156 726.15625 970.394531 C 722.59375 972.949219 718.839844 975.402344 714.773438 977.070312 C 712.695312 977.808594 710.515625 978.078125 708.347656 978.390625 C 705.90625 978.769531 703.535156 979.535156 701.058594 979.703125 C 696.910156 979.675781 692.429688 979.871094 688.859375 977.40625 C 687.382812 976.402344 686.476562 974.832031 685.328125 973.507812 C 684.484375 972.503906 683.425781 971.613281 682.714844 970.5 C 682.53125 969.390625 682.492188 968.253906 682.558594 967.113281 C 682.855469 966.527344 683.238281 965.960938 683.53125 965.40625 C 684.238281 964.074219 684.925781 962.734375 685.660156 961.414062 C 687.324219 958.476562 687.183594 954.96875 688.261719 951.824219 C 688.597656 950.75 689.390625 949.917969 690.335938 949.332031 C 692.210938 948.121094 694.195312 947.0625 696.1875 946.050781 C 698.496094 945.117188 700.824219 944.28125 703.214844 943.558594 C 703.773438 943.46875 704.328125 943.386719 704.886719 943.304688 C 710.082031 943.246094 715.253906 944.175781 720.382812 944.921875 C 722.707031 945.347656 724.957031 946.152344 727.316406 946.390625 C 731.855469 946.796875 736.363281 947.523438 740.601562 949.257812 C 744 950.269531 747.238281 951.65625 750.34375 953.335938 C 749.898438 954.527344 749.621094 955.789062 749.476562 956.957031 C 749.28125 958.554688 749.488281 960.195312 750.011719 961.730469 C 748.652344 961.960938 747.257812 962.371094 745.984375 962.730469 C 745.425781 962.984375 744.863281 963.207031 744.292969 963.417969 C 743.121094 963.527344 741.949219 963.625 740.789062 963.824219 Z M 738.566406 965.734375 C 735.945312 967.054688 733.257812 968.253906 730.71875 969.757812 C 729.015625 970.605469 727.355469 971.53125 725.726562 972.515625 C 728.277344 970.761719 730.824219 969.007812 733.53125 967.488281 C 735.152344 966.722656 736.84375 966.167969 738.566406 965.734375 Z M 682.957031 964.078125 C 683.039062 963.667969 683.125 963.261719 683.226562 962.863281 C 684.210938 959.964844 685.382812 957.101562 686.136719 954.117188 C 686.476562 953.128906 686.960938 952.199219 687.53125 951.316406 C 685.730469 954.761719 686.445312 958.929688 683.996094 962.667969 C 683.617188 963.171875 683.269531 963.636719 682.957031 964.078125 Z M 689.226562 949.078125 C 690.011719 948.183594 690.871094 947.355469 691.742188 946.585938 C 693.921875 944.960938 696.625 944.300781 699.25 943.65625 C 699.847656 943.53125 700.460938 943.46875 701.082031 943.425781 C 697.421875 944.292969 693.898438 945.882812 690.742188 947.90625 C 690.160156 948.277344 689.660156 948.667969 689.226562 949.074219 Z M 715.460938 942.777344 C 716.039062 942.773438 716.621094 942.777344 717.203125 942.808594 C 719.300781 943.019531 721.347656 943.546875 723.4375 943.792969 C 726.953125 944.175781 730.488281 944.421875 733.824219 945.691406 C 735.195312 946.023438 736.550781 946.386719 737.878906 946.824219 C 737.1875 946.703125 736.5 946.582031 735.816406 946.445312 C 731.164062 945.472656 726.550781 944.296875 721.796875 943.957031 C 719.667969 943.644531 717.570312 943.160156 715.460938 942.777344 Z M 779.15625 940.671875 C 779.664062 940.523438 780.179688 940.390625 780.699219 940.273438 C 780.183594 940.410156 779.671875 940.542969 779.15625 940.671875 Z M 799.308594 936.496094 C 806.28125 936.1875 813.445312 935.324219 820.125 937.933594 C 823.960938 939.34375 828.328125 940.601562 830.539062 944.339844 C 832.21875 947.089844 833.492188 950.367188 832.8125 953.621094 C 832.375 955.835938 831.667969 958.035156 831.796875 960.308594 C 831.6875 959.96875 831.582031 959.621094 831.5 959.273438 C 831.070312 956.695312 831.988281 954.058594 831.441406 951.476562 C 830.710938 943.789062 823.546875 939.371094 816.46875 938.359375 C 813.6875 937.761719 810.976562 936.828125 808.113281 936.734375 C 803.488281 936.621094 798.832031 936.535156 794.285156 937.535156 C 791.558594 937.90625 788.8125 938.210938 786.117188 938.789062 C 787.542969 938.347656 788.964844 937.902344 790.410156 937.53125 C 793.316406 936.796875 796.335938 936.753906 799.308594 936.496094 Z M 718.621094 934.855469 C 721.144531 935.121094 723.511719 936.121094 725.949219 936.769531 C 728.175781 937.417969 730.390625 937.945312 732.574219 938.738281 C 733.457031 939.101562 734.316406 939.535156 735.171875 939.984375 C 733.003906 939.570312 730.78125 939.472656 728.5625 939.328125 C 725.671875 938.925781 722.738281 938.242188 719.910156 937.394531 C 717.285156 936.574219 714.789062 935.402344 712.289062 934.265625 C 714.398438 934.464844 716.507812 934.699219 718.621094 934.855469 Z M 702.195312 932.648438 C 700.699219 932.605469 699.207031 932.519531 697.71875 932.375 C 697.457031 932.359375 697.195312 932.351562 696.9375 932.347656 C 698.664062 932.25 700.4375 932.375 702.195312 932.648438 Z M 733.515625 976.59375 C 728.878906 979.414062 724.152344 982.082031 719.386719 984.667969 C 716.191406 986.050781 712.9375 987.375 709.59375 988.355469 C 707.042969 988.953125 704.4375 989.355469 701.832031 989.636719 C 698.734375 989.871094 695.863281 989.0625 692.769531 988.609375 C 690.828125 988.371094 688.824219 988.214844 686.957031 987.609375 C 690.324219 988.207031 693.714844 988.855469 697.128906 989.015625 C 699.8125 988.890625 702.507812 988.691406 705.179688 988.40625 C 708.011719 987.851562 710.835938 987.125 713.574219 986.203125 C 716.210938 985.03125 718.96875 984.230469 721.613281 983.054688 C 723.945312 981.785156 726.347656 980.691406 728.640625 979.308594 C 730.925781 977.621094 733.335938 976.15625 735.84375 974.816406 C 738.566406 973.136719 741.195312 971.339844 744.148438 970.050781 C 745.667969 969.152344 747.09375 968.109375 748.671875 967.300781 C 749.796875 966.675781 750.796875 965.851562 751.933594 965.246094 C 752.136719 965.503906 752.355469 965.75 752.578125 965.984375 C 749.140625 969 744.714844 970.246094 740.609375 972.066406 C 738.035156 973.226562 735.851562 975.039062 733.515625 976.597656 Z M 700.121094 1068.628906 C 699.421875 1070.230469 698.472656 1071.707031 697.828125 1073.332031 C 697.496094 1074.203125 697.121094 1075.0625 696.730469 1075.90625 C 695.816406 1077.359375 694.871094 1078.789062 693.972656 1080.246094 C 692.507812 1082.304688 691.121094 1084.457031 689.585938 1086.476562 C 689.582031 1086.480469 689.574219 1086.484375 689.566406 1086.488281 C 689.570312 1086.480469 689.519531 1086.496094 689.460938 1086.507812 C 689.457031 1086.515625 689.359375 1086.535156 689.261719 1086.539062 C 683.746094 1086.234375 680.753906 1077.769531 679.328125 1072.398438 C 680.335938 1072.0625 681.308594 1071.566406 682.292969 1071.179688 C 684.226562 1070.421875 686 1069.363281 687.707031 1068.1875 C 690.6875 1066.453125 693.453125 1064.386719 696.050781 1062.121094 C 698.808594 1059.988281 701.605469 1057.890625 704.136719 1055.488281 C 702.714844 1059.84375 701.664062 1064.320312 700.125 1068.628906 Z M 730.6875 1017.632812 C 728.5625 1021.433594 726.296875 1025.066406 723.601562 1028.507812 C 719.953125 1033.761719 716.082031 1038.894531 711.679688 1043.539062 C 711.769531 1043.128906 711.84375 1042.710938 711.910156 1042.296875 C 712.191406 1040.03125 712.996094 1037.882812 713.5625 1035.675781 C 714.777344 1030.570312 715.84375 1025.394531 717.105469 1020.289062 C 719.171875 1015.15625 720.679688 1009.980469 723.386719 1005.097656 C 724.71875 1002.429688 725.78125 999.597656 727.640625 997.21875 C 729.109375 995.417969 730.648438 993.65625 732.21875 991.917969 C 735.375 989.160156 738.792969 986.707031 742.015625 984.027344 C 744.125 982.300781 746.125 980.441406 748.3125 978.816406 C 747.070312 982.515625 746.085938 986.304688 744.65625 989.9375 C 742.421875 995.5625 739.839844 1001.03125 737.503906 1006.613281 C 736.640625 1008.328125 735.734375 1010.019531 734.824219 1011.703125 C 733.496094 1013.710938 732.054688 1015.648438 730.6875 1017.632812 Z M 707.097656 1048.429688 C 707.53125 1046.761719 708.289062 1045.199219 708.796875 1043.554688 C 709.179688 1042.15625 709.414062 1040.714844 709.894531 1039.339844 C 711.152344 1036.011719 712.265625 1032.636719 713.160156 1029.1875 C 713.957031 1026.871094 714.414062 1024.46875 714.847656 1022.066406 C 715.796875 1018.457031 716.550781 1014.59375 717.847656 1011.058594 C 718.820312 1009.039062 719.976562 1007.097656 721.1875 1005.195312 C 720.542969 1006.578125 719.984375 1007.996094 719.507812 1009.449219 C 718.03125 1012.933594 716.816406 1016.507812 716.082031 1020.226562 C 714.441406 1025.003906 713.527344 1030 712.398438 1034.941406 C 711.886719 1038.003906 711.351562 1041.015625 710.296875 1043.953125 C 710.046875 1045.648438 709.171875 1046.988281 708.085938 1048.277344 C 707.660156 1048.820312 707.210938 1049.339844 706.75 1049.851562 C 706.863281 1049.378906 706.976562 1048.902344 707.097656 1048.429688 Z M 678.878906 1070.628906 C 679.535156 1070.433594 680.234375 1070.417969 680.921875 1070.332031 C 680.285156 1070.582031 679.625 1070.78125 678.960938 1070.960938 C 678.933594 1070.847656 678.90625 1070.734375 678.878906 1070.625 Z M 677.816406 1072.730469 C 677.910156 1073.136719 678.003906 1073.542969 678.109375 1073.945312 C 677.917969 1073.550781 677.726562 1073.152344 677.53125 1072.757812 C 677.628906 1072.753906 677.722656 1072.738281 677.816406 1072.730469 Z M 707.214844 1053.992188 C 706.585938 1055.242188 705.847656 1056.433594 705.347656 1057.746094 C 704.414062 1060.429688 703.34375 1063.035156 702.074219 1065.5625 C 702.605469 1064.035156 703.105469 1062.503906 703.464844 1060.917969 C 704.167969 1058.671875 704.542969 1056.332031 705.527344 1054.179688 C 706.410156 1053.339844 707.242188 1052.449219 708.027344 1051.515625 C 708.085938 1051.4375 708.15625 1051.367188 708.214844 1051.289062 C 707.933594 1052.207031 707.625 1053.117188 707.214844 1053.988281 Z M 775.875 1034.914062 C 776.382812 1035.332031 776.894531 1035.746094 777.414062 1036.144531 C 777.425781 1036.273438 777.4375 1036.402344 777.453125 1036.53125 C 776.894531 1036.015625 776.375 1035.46875 775.875 1034.914062 Z M 787.769531 1076.976562 C 786.390625 1074.308594 786.480469 1071.144531 785.328125 1068.375 C 784.230469 1065.636719 783.667969 1062.75 783.03125 1059.878906 C 781.472656 1054.242188 780.492188 1048.519531 779.773438 1042.734375 C 780.886719 1047.398438 782.046875 1052.074219 783.332031 1056.699219 C 784.453125 1059.589844 785.796875 1062.410156 786.457031 1065.457031 C 787.03125 1068.488281 787.117188 1071.621094 787.585938 1074.6875 C 787.675781 1075.515625 787.730469 1076.375 787.890625 1077.152344 C 787.851562 1077.09375 787.808594 1077.035156 787.769531 1076.976562 Z M 808.613281 1063.394531 C 810.175781 1064.96875 811.726562 1066.546875 813.222656 1068.179688 C 813.375 1068.433594 813.519531 1068.691406 813.648438 1068.964844 C 813.800781 1069.316406 813.8125 1069.699219 813.730469 1070.097656 C 813.625 1070.179688 813.519531 1070.253906 813.4375 1070.324219 C 811.953125 1071.484375 810.332031 1072.808594 808.523438 1073.5 C 805.398438 1074.554688 802.3125 1075.683594 799.226562 1076.828125 C 796.515625 1077.480469 793.824219 1078.613281 791.039062 1079.011719 C 790.226562 1078.828125 789.519531 1078.433594 789.082031 1077.597656 C 788.355469 1074.597656 789.015625 1071.433594 788.347656 1068.417969 C 787.867188 1065.980469 786.964844 1063.652344 786.390625 1061.238281 C 785.824219 1059.324219 785.492188 1057.34375 784.824219 1055.460938 C 783.015625 1051.210938 782.0625 1046.691406 781.089844 1042.183594 C 785.636719 1046.617188 790.371094 1050.933594 795.722656 1054.386719 C 799.324219 1056.074219 802.6875 1058.167969 805.582031 1060.921875 C 806.539062 1061.773438 807.585938 1062.574219 808.617188 1063.394531 Z M 809.660156 1075.015625 C 808.507812 1075.828125 807.316406 1076.667969 805.964844 1077.148438 C 804.273438 1077.761719 802.476562 1077.832031 800.726562 1078.164062 C 799.046875 1078.535156 797.398438 1078.996094 795.691406 1079.09375 C 796.410156 1078.835938 797.128906 1078.578125 797.847656 1078.351562 C 799.8125 1077.644531 801.894531 1077.339844 803.875 1076.679688 C 805.476562 1076.105469 806.953125 1075.269531 808.472656 1074.519531 C 809.566406 1073.941406 810.746094 1073.539062 811.878906 1073.050781 C 811.09375 1073.875 810.234375 1074.589844 809.660156 1075.015625 Z M 789.648438 1046.394531 C 792.988281 1049.257812 796.328125 1052.125 799.945312 1054.640625 C 800.890625 1055.328125 801.738281 1056.132812 802.550781 1056.976562 C 800.601562 1055.632812 798.621094 1054.320312 796.746094 1052.878906 C 794.820312 1051.550781 792.734375 1050.449219 790.890625 1048.996094 C 787.226562 1045.867188 783.796875 1042.464844 780.332031 1039.117188 C 780.289062 1038.992188 780.246094 1038.867188 780.203125 1038.738281 C 783.082031 1041.617188 786.246094 1044.148438 789.648438 1046.394531 Z M 820.195312 987.507812 C 816.277344 987.9375 812.414062 988.675781 808.511719 989.199219 C 805.605469 989.441406 802.707031 989.042969 799.824219 988.707031 C 797.410156 988.433594 794.957031 988.5625 792.558594 988.128906 C 791.960938 988.023438 791.371094 987.890625 790.789062 987.746094 C 792.703125 987.910156 794.625 988.011719 796.539062 988.101562 C 799.652344 987.960938 802.8125 988.269531 805.902344 987.894531 C 808.09375 987.730469 810.289062 987.960938 812.476562 987.789062 C 815.144531 987.449219 817.738281 986.648438 820.441406 986.53125 C 823.839844 986.128906 827.113281 984.96875 829.945312 983.070312 C 827.199219 985.347656 823.644531 986.730469 820.195312 987.507812 Z M 820.195312 987.507812 " fill-opacity="1" fill-rule="nonzero"/></g><path fill="#7d8f77" d="M 688.769531 941.304688 C 689.457031 940.710938 690.230469 940.222656 691.015625 939.757812 C 694.667969 938.160156 698.644531 937.574219 702.601562 937.257812 C 702.957031 937.246094 702.917969 936.695312 702.574219 936.71875 C 700.894531 936.90625 699.195312 936.824219 697.519531 937.023438 C 696.175781 937.304688 694.835938 937.632812 693.496094 937.96875 C 692.140625 938.421875 690.9375 939.214844 689.652344 939.824219 C 689.28125 940.125 687.78125 940.710938 688.292969 941.292969 C 688.421875 941.414062 688.632812 941.421875 688.769531 941.304688 Z M 688.769531 941.304688 " fill-opacity="1" fill-rule="nonzero"/><path fill="#7d8f77" d="M 698.730469 985.183594 C 698.722656 985.015625 698.578125 984.882812 698.410156 984.894531 C 697.121094 984.949219 695.835938 985.011719 694.550781 985.015625 C 693.425781 984.972656 692.328125 984.988281 691.199219 984.886719 C 690.625 984.898438 690.558594 985.777344 691.121094 985.878906 C 693.558594 985.925781 695.996094 985.53125 698.441406 985.507812 C 698.605469 985.5 698.742188 985.351562 698.730469 985.183594 Z M 698.730469 985.183594 " fill-opacity="1" fill-rule="nonzero"/><path fill="#7d8f77" d="M 702.941406 985.09375 C 704.117188 984.890625 705.246094 984.449219 706.4375 984.3125 C 708.382812 984.078125 710.222656 983.339844 712.148438 982.976562 C 714.128906 982.296875 716.09375 981.546875 718.09375 980.890625 C 719.1875 980.5 720.28125 980.113281 721.378906 979.722656 C 721.746094 979.605469 721.554688 979.046875 721.203125 979.167969 C 718.277344 980.140625 715.449219 981.398438 712.410156 981.964844 C 709.71875 982.734375 707.011719 983.515625 704.269531 984.070312 C 703.785156 984.238281 702.128906 984.078125 702.628906 984.953125 C 702.710938 985.046875 702.824219 985.097656 702.941406 985.097656 Z M 702.941406 985.09375 " fill-opacity="1" fill-rule="nonzero"/><path fill="#7d8f77" d="M 734.214844 972.78125 C 735.09375 972.3125 735.972656 971.84375 736.859375 971.390625 C 737.082031 971.28125 737.1875 971.019531 737.082031 970.785156 C 736.980469 970.566406 736.695312 970.453125 736.472656 970.566406 C 735.488281 971.0625 734.511719 971.570312 733.519531 972.058594 C 733.097656 972.285156 732.261719 972.570312 732.605469 973.1875 C 733.082031 973.820312 733.71875 972.984375 734.214844 972.78125 Z M 734.214844 972.78125 " fill-opacity="1" fill-rule="nonzero"/><path fill="#7d8f77" d="M 806.355469 939.429688 C 801.695312 939.335938 797.039062 939.34375 792.417969 939.992188 C 791.359375 940.121094 790.261719 940.21875 789.234375 940.46875 C 788.820312 940.6875 788.910156 941.339844 789.363281 941.445312 C 790.871094 941.300781 792.308594 940.78125 793.835938 940.585938 C 798.003906 940.257812 802.175781 940.15625 806.359375 940.242188 C 806.890625 940.242188 806.871094 939.429688 806.355469 939.429688 Z M 806.355469 939.429688 " fill-opacity="1" fill-rule="nonzero"/><path fill="#7d8f77" d="M 816.515625 940.730469 C 815.953125 940.667969 814.949219 940.195312 814.667969 940.921875 C 814.539062 941.832031 815.738281 941.445312 816.269531 941.671875 C 816.882812 941.820312 817.132812 940.894531 816.515625 940.730469 Z M 816.515625 940.730469 " fill-opacity="1" fill-rule="nonzero"/><path fill="#7d8f77" d="M 825.496094 981.378906 C 826.164062 981.167969 826.800781 980.84375 827.472656 980.632812 C 827.964844 980.410156 830.238281 979.839844 829.214844 979.097656 C 829.019531 979.015625 828.78125 979.101562 828.691406 979.292969 C 828.167969 979.683594 827.550781 979.917969 826.976562 980.230469 C 826.453125 980.464844 825.925781 980.679688 825.398438 980.894531 C 825.269531 980.945312 825.207031 981.09375 825.257812 981.222656 C 825.300781 981.320312 825.394531 981.378906 825.496094 981.378906 Z M 825.496094 981.378906 " fill-opacity="1" fill-rule="nonzero"/><path fill="#7d8f77" d="M 797.980469 984.933594 C 802.472656 984.890625 806.945312 984.648438 811.40625 984.136719 C 813.121094 983.820312 814.796875 983.578125 816.546875 983.496094 C 818.304688 983.242188 820.027344 982.910156 821.769531 982.566406 C 822.054688 982.464844 822.582031 982.550781 822.667969 982.183594 C 822.632812 981.628906 821.988281 982.015625 821.667969 982.0625 C 819.863281 982.46875 817.984375 982.632812 816.148438 982.890625 C 815.050781 983.125 813.949219 983.339844 812.828125 983.371094 C 811.097656 983.464844 809.386719 983.730469 807.683594 983.996094 C 806.1875 984.152344 804.664062 984.011719 803.164062 984.199219 C 801.433594 984.261719 799.707031 984.289062 797.980469 984.34375 C 797.816406 984.347656 797.683594 984.476562 797.683594 984.640625 C 797.683594 984.796875 797.820312 984.9375 797.980469 984.933594 Z M 797.980469 984.933594 " fill-opacity="1" fill-rule="nonzero"/><path fill="#7d8f77" d="M 796.335938 984.203125 C 795.308594 983.957031 794.167969 984.148438 793.078125 984.003906 C 791.53125 983.921875 789.917969 983.601562 788.371094 983.378906 C 787.929688 983.316406 787.855469 984 788.285156 984.050781 C 790.84375 984.433594 793.355469 985.011719 795.9375 985.21875 C 796.511719 985.308594 796.871094 984.507812 796.335938 984.203125 Z M 796.335938 984.203125 " fill-opacity="1" fill-rule="nonzero"/><path fill="#7d8f77" d="M 759.5625 954.246094 C 760 954.246094 760.363281 953.871094 760.363281 953.433594 C 760.359375 952.996094 759.988281 952.632812 759.550781 952.632812 C 759.113281 952.632812 758.746094 953.003906 758.75 953.441406 C 758.753906 953.882812 759.121094 954.246094 759.5625 954.246094 Z M 759.5625 954.246094 " fill-opacity="1" fill-rule="nonzero"/><path fill="#7d8f77" d="M 739.117188 990.144531 C 738.820312 990.113281 738.65625 990.398438 738.488281 990.59375 C 737.390625 992.027344 735.992188 993.203125 734.921875 994.671875 C 733.648438 995.878906 732.929688 997.515625 731.933594 998.933594 C 731.503906 999.5625 731.058594 1000.21875 730.617188 1000.875 C 730.542969 1000.976562 730.550781 1001.113281 730.65625 1001.191406 C 730.75 1001.265625 730.90625 1001.257812 730.976562 1001.152344 C 731.535156 1000.34375 732.085938 999.527344 732.664062 998.734375 C 734.855469 996.015625 736.941406 993.179688 739.382812 990.691406 C 739.515625 990.472656 739.367188 990.167969 739.113281 990.144531 Z M 739.117188 990.144531 " fill-opacity="1" fill-rule="nonzero"/><path fill="#7d8f77" d="M 724.910156 1010.292969 C 723.726562 1012.171875 723.25 1014.414062 722.378906 1016.445312 C 722.3125 1016.621094 722.386719 1016.816406 722.5625 1016.886719 C 722.730469 1016.957031 722.9375 1016.875 723 1016.703125 C 723.773438 1014.742188 724.707031 1012.808594 725.988281 1011.128906 C 726.527344 1010.417969 725.464844 1009.59375 724.910156 1010.292969 Z M 724.910156 1010.292969 " fill-opacity="1" fill-rule="nonzero"/><path fill="#7d8f77" d="M 720.101562 1025.082031 C 719.367188 1025.050781 719.15625 1026.5 719.863281 1026.664062 C 720.734375 1026.863281 721.136719 1025.085938 720.101562 1025.082031 Z M 720.101562 1025.082031 " fill-opacity="1" fill-rule="nonzero"/><path fill="#7d8f77" d="M 696.433594 1067.664062 C 695.492188 1069.074219 694.765625 1070.601562 693.996094 1072.105469 C 693.902344 1072.292969 693.949219 1072.523438 694.136719 1072.632812 C 694.3125 1072.734375 694.566406 1072.679688 694.660156 1072.492188 C 695.191406 1071.457031 695.738281 1070.429688 696.289062 1069.40625 C 696.722656 1068.21875 697.527344 1067.257812 698.089844 1066.121094 C 698.191406 1065.921875 698.355469 1065.699219 698.265625 1065.464844 C 697.578125 1064.429688 696.816406 1067.238281 696.429688 1067.664062 Z M 696.433594 1067.664062 " fill-opacity="1" fill-rule="nonzero"/><path fill="#7d8f77" d="M 691.730469 1076.316406 C 690.957031 1076.203125 690.378906 1077.277344 691.042969 1077.785156 C 692.125 1078.488281 693.148438 1076.636719 691.730469 1076.316406 Z M 691.730469 1076.316406 " fill-opacity="1" fill-rule="nonzero"/><path fill="#7d8f77" d="M 764.707031 1004.558594 C 763.777344 1001.542969 762.277344 998.753906 761.34375 995.753906 C 761.238281 995.519531 760.882812 995.539062 760.78125 995.765625 C 760.640625 996.4375 761.128906 997.105469 761.359375 997.722656 C 762.34375 1000.847656 763.636719 1003.882812 764.65625 1007.011719 C 764.734375 1007.226562 764.984375 1007.335938 765.191406 1007.261719 C 765.40625 1007.183594 765.511719 1006.945312 765.4375 1006.730469 C 765.195312 1006.007812 764.949219 1005.285156 764.707031 1004.558594 Z M 764.707031 1004.558594 " fill-opacity="1" fill-rule="nonzero"/><path fill="#7d8f77" d="M 767.359375 1009.53125 C 767.234375 1009.347656 766.933594 1009.347656 766.816406 1009.542969 C 766.621094 1010.136719 767.175781 1010.785156 767.3125 1011.367188 C 767.460938 1011.757812 768.054688 1011.53125 767.914062 1011.148438 C 767.691406 1010.613281 767.566406 1010.066406 767.359375 1009.527344 Z M 767.359375 1009.53125 " fill-opacity="1" fill-rule="nonzero"/><path fill="#7d8f77" d="M 792.441406 1055.058594 C 790.777344 1053.539062 789.273438 1051.835938 787.574219 1050.355469 C 787.070312 1049.917969 786.371094 1050.660156 786.820312 1051.140625 C 789.242188 1053.261719 791.621094 1055.433594 793.96875 1057.648438 C 794.136719 1057.800781 794.414062 1057.765625 794.558594 1057.597656 C 794.707031 1057.417969 794.671875 1057.164062 794.503906 1057.007812 C 793.8125 1056.367188 793.128906 1055.714844 792.441406 1055.058594 Z M 792.441406 1055.058594 " fill-opacity="1" fill-rule="nonzero"/><path fill="#7d8f77" d="M 799.914062 1063.0625 C 800.742188 1063.628906 801.742188 1062.445312 801.042969 1061.71875 C 800.875 1061.523438 800.667969 1061.351562 800.527344 1061.128906 C 800.28125 1060.589844 799.539062 1060.449219 799.074219 1060.777344 C 798.039062 1061.601562 799.097656 1062.613281 799.914062 1063.0625 Z M 799.914062 1063.0625 " fill-opacity="1" fill-rule="nonzero"/><g fill="#3e3e3a" fill-opacity="1"><g transform="translate(513.193911, 621.545381)"><g><path d="M 0.40625 -2.03125 L 0.609375 -2.46875 C 0.765625 -2.8125 0.894531 -3.238281 1 -3.75 C 1.101562 -4.269531 1 -4.609375 0.6875 -4.765625 L -21.796875 -16.078125 C -22.003906 -16.179688 -22.222656 -16.148438 -22.453125 -15.984375 C -22.691406 -15.816406 -22.910156 -15.585938 -23.109375 -15.296875 C -23.304688 -15.015625 -23.46875 -14.765625 -23.59375 -14.546875 C -23.726562 -14.328125 -23.796875 -14.21875 -23.796875 -14.21875 L -24.328125 -14.484375 L -17.375 -28.328125 L -15.203125 -27.234375 L -15.34375 -26.953125 C -15.394531 -26.941406 -15.601562 -26.921875 -15.96875 -26.890625 C -16.332031 -26.859375 -16.695312 -26.785156 -17.0625 -26.671875 C -17.425781 -26.566406 -17.675781 -26.382812 -17.8125 -26.125 L -22 -17.796875 L -11.5625 -12.53125 L -7.3125 -20.96875 C -7.21875 -21.15625 -7.273438 -21.398438 -7.484375 -21.703125 C -7.691406 -22.003906 -7.796875 -22.15625 -7.796875 -22.15625 L -7.671875 -22.40625 L -5.4375 -21.265625 L -5.5625 -21.015625 C -5.5625 -21.015625 -5.738281 -21.007812 -6.09375 -21 C -6.445312 -20.988281 -6.671875 -20.890625 -6.765625 -20.703125 L -11.015625 -12.265625 L 1.34375 -6.046875 C 1.65625 -5.890625 1.984375 -6.003906 2.328125 -6.390625 C 2.671875 -6.785156 2.929688 -7.132812 3.109375 -7.4375 L 3.34375 -7.90625 L 3.84375 -7.65625 L 0.90625 -1.78125 Z M 0.40625 -2.03125 "/></g></g></g><g fill="#3e3e3a" fill-opacity="1"><g transform="translate(526.483837, 596.033381)"><g><path d="M 0.609375 -2 C 0.992188 -2.570312 1.265625 -3.109375 1.421875 -3.609375 C 1.578125 -4.117188 1.515625 -4.46875 1.234375 -4.65625 L -19.765625 -18.609375 C -20.054688 -18.796875 -20.394531 -18.710938 -20.78125 -18.359375 C -21.175781 -18.015625 -21.566406 -17.554688 -21.953125 -16.984375 L -22.46875 -17.328125 L -17.25 -25.1875 C -16.363281 -26.519531 -15.300781 -27.554688 -14.0625 -28.296875 C -12.820312 -29.046875 -11.515625 -29.429688 -10.140625 -29.453125 C -8.773438 -29.472656 -7.421875 -29.039062 -6.078125 -28.15625 C -4.929688 -27.382812 -4.066406 -26.4375 -3.484375 -25.3125 C -2.898438 -24.195312 -2.609375 -23.003906 -2.609375 -21.734375 C -2.617188 -20.472656 -2.90625 -19.226562 -3.46875 -18 C -2.476562 -18.570312 -1.492188 -19.007812 -0.515625 -19.3125 C 0.460938 -19.625 1.671875 -19.515625 3.109375 -18.984375 C 3.710938 -18.765625 4.425781 -18.523438 5.25 -18.265625 C 6.070312 -18.015625 6.910156 -17.832031 7.765625 -17.71875 C 8.628906 -17.601562 9.429688 -17.632812 10.171875 -17.8125 C 10.921875 -18 11.503906 -18.40625 11.921875 -19.03125 L 12.421875 -18.703125 L 11.125 -16.765625 C 9.9375 -16.367188 8.847656 -16.191406 7.859375 -16.234375 C 6.878906 -16.285156 5.921875 -16.46875 4.984375 -16.78125 C 4.046875 -17.09375 3.015625 -17.4375 1.890625 -17.8125 C 1.242188 -18.050781 0.503906 -18.15625 -0.328125 -18.125 C -1.171875 -18.09375 -1.957031 -17.945312 -2.6875 -17.6875 C -3.414062 -17.425781 -3.929688 -17.0625 -4.234375 -16.59375 L -7.28125 -12.03125 L 2.015625 -5.859375 C 2.296875 -5.671875 2.640625 -5.742188 3.046875 -6.078125 C 3.453125 -6.421875 3.847656 -6.882812 4.234375 -7.46875 L 4.734375 -7.140625 L 1.109375 -1.671875 Z M -4.734375 -16.875 C -3.992188 -17.976562 -3.601562 -19.164062 -3.5625 -20.4375 C -3.519531 -21.71875 -3.785156 -22.9375 -4.359375 -24.09375 C -4.929688 -25.257812 -5.769531 -26.210938 -6.875 -26.953125 C -8 -27.691406 -9.175781 -28.082031 -10.40625 -28.125 C -11.644531 -28.164062 -12.820312 -27.90625 -13.9375 -27.34375 C -15.0625 -26.78125 -15.992188 -25.945312 -16.734375 -24.84375 L -18.609375 -22.015625 C -18.796875 -21.710938 -18.976562 -21.316406 -19.15625 -20.828125 C -19.332031 -20.335938 -19.265625 -19.988281 -18.953125 -19.78125 L -7.75 -12.34375 Z M -4.734375 -16.875 "/></g></g></g><g fill="#3e3e3a" fill-opacity="1"><g transform="translate(545.359265, 568.348317)"><g><path d="M 0.90625 -1.875 C 1.28125 -2.289062 1.628906 -2.753906 1.953125 -3.265625 C 2.285156 -3.773438 2.351562 -4.238281 2.15625 -4.65625 L -10.953125 -30.265625 L -10.5625 -30.703125 L -10.53125 -30.671875 L 16.453125 -20.609375 C 16.859375 -20.523438 17.257812 -20.628906 17.65625 -20.921875 C 18.050781 -21.210938 18.445312 -21.578125 18.84375 -22.015625 L 19.265625 -21.640625 L 14.890625 -16.734375 L 14.46875 -17.109375 C 14.90625 -17.585938 15.253906 -18.066406 15.515625 -18.546875 C 15.773438 -19.023438 15.707031 -19.332031 15.3125 -19.46875 L 4.546875 -23.53125 L -2.6875 -15.40625 L 2.578125 -5.15625 L 2.609375 -5.1875 C 2.710938 -4.9375 2.925781 -4.878906 3.25 -5.015625 C 3.582031 -5.160156 3.929688 -5.410156 4.296875 -5.765625 C 4.660156 -6.117188 4.984375 -6.453125 5.265625 -6.765625 L 5.6875 -6.390625 L 1.328125 -1.5 Z M 3.96875 -23.734375 L -9.515625 -28.78125 L -2.953125 -15.96875 Z M 3.96875 -23.734375 "/></g></g></g><g fill="#3e3e3a" fill-opacity="1"><g transform="translate(572.327048, 538.988799)"><g><path d="M 1.1875 -1.703125 C 1.726562 -2.148438 2.144531 -2.585938 2.4375 -3.015625 C 2.738281 -3.441406 2.78125 -3.789062 2.5625 -4.0625 L -13.453125 -23.578125 C -13.703125 -23.835938 -14.0625 -23.867188 -14.53125 -23.671875 C -15 -23.472656 -15.503906 -23.148438 -16.046875 -22.703125 L -16.40625 -23.140625 L -13.21875 -25.765625 L 11 -12.546875 L 2.59375 -38.734375 L 5.8125 -41.375 L 6.171875 -40.9375 C 5.628906 -40.488281 5.207031 -40.050781 4.90625 -39.625 C 4.613281 -39.195312 4.578125 -38.84375 4.796875 -38.5625 L 20.8125 -19.046875 C 21.03125 -18.773438 21.378906 -18.742188 21.859375 -18.953125 C 22.347656 -19.160156 22.863281 -19.488281 23.40625 -19.9375 L 23.765625 -19.5 L 18.6875 -15.328125 L 18.328125 -15.765625 C 18.859375 -16.203125 19.273438 -16.632812 19.578125 -17.0625 C 19.878906 -17.5 19.921875 -17.851562 19.703125 -18.125 L 3.484375 -37.890625 L 12.28125 -10.328125 L 12.1875 -10.25 L -13.09375 -24.03125 L 3 -4.421875 C 3.21875 -4.148438 3.566406 -4.117188 4.046875 -4.328125 C 4.535156 -4.546875 5.046875 -4.875 5.578125 -5.3125 L 5.9375 -4.875 L 1.546875 -1.265625 Z M 1.1875 -1.703125 "/></g></g></g><g fill="#3e3e3a" fill-opacity="1"><g transform="translate(605.409503, 513.300466)"><g/></g></g><g fill="#3e3e3a" fill-opacity="1"><g transform="translate(627.134735, 500.142199)"><g><path d="M 1.546875 -1.375 L 2.015625 -1.59375 C 2.328125 -1.8125 2.679688 -2.082031 3.078125 -2.40625 C 3.472656 -2.726562 3.597656 -3.039062 3.453125 -3.34375 L -7.5 -26.0625 C -7.65625 -26.40625 -7.984375 -26.519531 -8.484375 -26.40625 C -8.984375 -26.300781 -9.40625 -26.175781 -9.75 -26.03125 L -10.21875 -25.8125 L -10.46875 -26.328125 L -1.96875 -30.421875 C -0.519531 -31.117188 0.941406 -31.429688 2.421875 -31.359375 C 3.910156 -31.285156 5.269531 -30.863281 6.5 -30.09375 C 7.726562 -29.320312 8.691406 -28.21875 9.390625 -26.78125 C 10.078125 -25.363281 10.34375 -23.921875 10.1875 -22.453125 C 10.03125 -20.992188 9.515625 -19.660156 8.640625 -18.453125 C 7.773438 -17.242188 6.617188 -16.289062 5.171875 -15.59375 L 0.28125 -13.234375 L 4.75 -3.96875 C 4.894531 -3.664062 5.21875 -3.566406 5.71875 -3.671875 C 6.226562 -3.785156 6.65625 -3.894531 7 -4 L 7.46875 -4.21875 L 7.71875 -3.71875 L 1.796875 -0.875 Z M 4.90625 -16.140625 C 6.113281 -16.710938 7.046875 -17.5625 7.703125 -18.6875 C 8.367188 -19.8125 8.738281 -21.039062 8.8125 -22.375 C 8.894531 -23.71875 8.65625 -24.976562 8.09375 -26.15625 C 7.507812 -27.351562 6.671875 -28.332031 5.578125 -29.09375 C 4.492188 -29.863281 3.304688 -30.332031 2.015625 -30.5 C 0.734375 -30.675781 -0.507812 -30.476562 -1.71875 -29.90625 L -4.765625 -28.4375 C -5.078125 -28.257812 -5.429688 -28.007812 -5.828125 -27.6875 C -6.234375 -27.363281 -6.359375 -27.03125 -6.203125 -26.6875 L 0.015625 -13.78125 Z M 4.90625 -16.140625 "/></g></g></g><g fill="#3e3e3a" fill-opacity="1"><g transform="translate(655.554755, 487.000829)"><g><path d="M 1.703125 -1.203125 C 2.367188 -1.421875 2.914062 -1.679688 3.34375 -1.984375 C 3.78125 -2.296875 3.941406 -2.613281 3.828125 -2.9375 L -4.203125 -26.828125 C -4.316406 -27.160156 -4.632812 -27.304688 -5.15625 -27.265625 C -5.675781 -27.234375 -6.269531 -27.109375 -6.9375 -26.890625 L -7.125 -27.46875 L 1.828125 -30.46875 C 3.347656 -30.976562 4.828125 -31.148438 6.265625 -30.984375 C 7.703125 -30.816406 8.96875 -30.316406 10.0625 -29.484375 C 11.15625 -28.660156 11.957031 -27.488281 12.46875 -25.96875 C 12.90625 -24.65625 13.007812 -23.375 12.78125 -22.125 C 12.550781 -20.882812 12.046875 -19.769531 11.265625 -18.78125 C 10.484375 -17.789062 9.492188 -16.976562 8.296875 -16.34375 C 9.429688 -16.1875 10.476562 -15.929688 11.4375 -15.578125 C 12.394531 -15.222656 13.273438 -14.398438 14.078125 -13.109375 C 14.441406 -12.546875 14.867188 -11.910156 15.359375 -11.203125 C 15.847656 -10.492188 16.394531 -9.832031 17 -9.21875 C 17.613281 -8.613281 18.269531 -8.148438 18.96875 -7.828125 C 19.675781 -7.515625 20.382812 -7.476562 21.09375 -7.71875 L 21.28125 -7.15625 L 19.078125 -6.40625 C 17.890625 -6.820312 16.921875 -7.347656 16.171875 -7.984375 C 15.429688 -8.628906 14.785156 -9.363281 14.234375 -10.1875 C 13.679688 -11.019531 13.078125 -11.925781 12.421875 -12.90625 C 12.054688 -13.488281 11.53125 -14.023438 10.84375 -14.515625 C 10.164062 -15.003906 9.460938 -15.367188 8.734375 -15.609375 C 8.003906 -15.859375 7.375 -15.894531 6.84375 -15.71875 L 1.640625 -13.96875 L 5.1875 -3.390625 C 5.300781 -3.066406 5.617188 -2.910156 6.140625 -2.921875 C 6.671875 -2.941406 7.265625 -3.066406 7.921875 -3.296875 L 8.109375 -2.734375 L 1.890625 -0.640625 Z M 6.609375 -16.234375 C 7.867188 -16.660156 8.90625 -17.359375 9.71875 -18.328125 C 10.53125 -19.304688 11.066406 -20.429688 11.328125 -21.703125 C 11.597656 -22.972656 11.519531 -24.238281 11.09375 -25.5 C 10.664062 -26.769531 9.972656 -27.800781 9.015625 -28.59375 C 8.066406 -29.382812 6.976562 -29.90625 5.75 -30.15625 C 4.519531 -30.40625 3.273438 -30.316406 2.015625 -29.890625 L -1.203125 -28.8125 C -1.523438 -28.675781 -1.90625 -28.46875 -2.34375 -28.1875 C -2.789062 -27.914062 -2.953125 -27.601562 -2.828125 -27.25 L 1.453125 -14.5 Z M 6.609375 -16.234375 "/></g></g></g><g fill="#3e3e3a" fill-opacity="1"><g transform="translate(687.514465, 476.774146)"><g><path d="M 13.78125 -2.03125 C 12.1875 -1.726562 10.609375 -1.828125 9.046875 -2.328125 C 7.484375 -2.828125 6.03125 -3.644531 4.6875 -4.78125 C 3.351562 -5.914062 2.21875 -7.273438 1.28125 -8.859375 C 0.351562 -10.453125 -0.285156 -12.179688 -0.640625 -14.046875 C -0.992188 -15.941406 -1.03125 -17.800781 -0.75 -19.625 C -0.476562 -21.457031 0.0664062 -23.140625 0.890625 -24.671875 C 1.722656 -26.203125 2.773438 -27.488281 4.046875 -28.53125 C 5.316406 -29.582031 6.75 -30.257812 8.34375 -30.5625 L 8.703125 -30.625 C 10.328125 -30.9375 11.921875 -30.835938 13.484375 -30.328125 C 15.046875 -29.828125 16.492188 -29.003906 17.828125 -27.859375 C 19.160156 -26.710938 20.285156 -25.34375 21.203125 -23.75 C 22.128906 -22.164062 22.769531 -20.441406 23.125 -18.578125 C 23.476562 -16.710938 23.519531 -14.863281 23.25 -13.03125 C 22.976562 -11.207031 22.4375 -9.523438 21.625 -7.984375 C 20.820312 -6.453125 19.785156 -5.164062 18.515625 -4.125 C 17.253906 -3.082031 15.796875 -2.40625 14.140625 -2.09375 Z M 10.1875 -2.75 C 12.738281 -2.207031 15.082031 -2.65625 17.21875 -4.09375 C 18.457031 -5.007812 19.46875 -6.21875 20.25 -7.71875 C 21.039062 -9.226562 21.566406 -10.898438 21.828125 -12.734375 C 22.085938 -14.578125 22.039062 -16.429688 21.6875 -18.296875 C 21.289062 -20.378906 20.554688 -22.28125 19.484375 -24 C 18.421875 -25.71875 17.148438 -27.128906 15.671875 -28.234375 C 14.191406 -29.335938 12.632812 -29.96875 11 -30.125 C 10.582031 -30.15625 10.175781 -30.15625 9.78125 -30.125 C 9.394531 -30.101562 9.003906 -30.054688 8.609375 -29.984375 C 8.253906 -29.910156 7.882812 -29.820312 7.5 -29.71875 C 7.113281 -29.613281 6.75 -29.457031 6.40625 -29.25 C 4.945312 -28.488281 3.726562 -27.320312 2.75 -25.75 C 1.78125 -24.175781 1.109375 -22.394531 0.734375 -20.40625 C 0.359375 -18.425781 0.367188 -16.394531 0.765625 -14.3125 C 1.117188 -12.445312 1.765625 -10.707031 2.703125 -9.09375 C 3.640625 -7.476562 4.753906 -6.117188 6.046875 -5.015625 C 7.335938 -3.910156 8.71875 -3.15625 10.1875 -2.75 Z M 10.1875 -2.75 "/></g></g></g><g fill="#3e3e3a" fill-opacity="1"><g transform="translate(724.110902, 470.316389)"><g><path d="M 1.984375 -0.640625 C 2.679688 -0.660156 3.28125 -0.753906 3.78125 -0.921875 C 4.28125 -1.085938 4.519531 -1.34375 4.5 -1.6875 L 3.578125 -26.921875 C 3.523438 -27.273438 3.25 -27.515625 2.75 -27.640625 C 2.257812 -27.765625 1.664062 -27.816406 0.96875 -27.796875 L 0.953125 -28.359375 L 5.078125 -28.5 L 16.34375 -3.328125 L 25.515625 -29.265625 L 29.671875 -29.421875 L 29.6875 -28.859375 C 28.988281 -28.828125 28.390625 -28.726562 27.890625 -28.5625 C 27.390625 -28.40625 27.148438 -28.148438 27.171875 -27.796875 L 28.09375 -2.5625 C 28.113281 -2.21875 28.378906 -1.976562 28.890625 -1.84375 C 29.398438 -1.71875 30.003906 -1.671875 30.703125 -1.703125 L 30.71875 -1.140625 L 24.15625 -0.890625 L 24.140625 -1.453125 C 24.828125 -1.484375 25.421875 -1.578125 25.921875 -1.734375 C 26.429688 -1.898438 26.675781 -2.15625 26.65625 -2.5 L 25.71875 -28.0625 L 16.03125 -0.796875 L 15.90625 -0.796875 L 4.125 -27.0625 L 5.0625 -1.703125 C 5.082031 -1.359375 5.347656 -1.125 5.859375 -1 C 6.367188 -0.875 6.972656 -0.820312 7.671875 -0.84375 L 7.6875 -0.28125 L 2 -0.078125 Z M 1.984375 -0.640625 "/></g></g></g><g fill="#3e3e3a" fill-opacity="1"><g transform="translate(765.992924, 469.895044)"><g/></g></g><g fill="#3e3e3a" fill-opacity="1"><g transform="translate(791.259955, 472.579902)"><g><path d="M 2.078125 -0.1875 L 2.5625 -0.078125 C 2.925781 -0.0351562 3.367188 -0.03125 3.890625 -0.0625 C 4.410156 -0.101562 4.707031 -0.289062 4.78125 -0.625 L 9.78125 -25.296875 C 9.851562 -25.660156 9.660156 -25.953125 9.203125 -26.171875 C 8.742188 -26.390625 8.332031 -26.546875 7.96875 -26.640625 L 7.453125 -26.75 L 7.578125 -27.34375 L 16.125 -25.609375 C 18.144531 -25.191406 19.71875 -24.1875 20.84375 -22.59375 C 21.382812 -21.832031 21.753906 -20.988281 21.953125 -20.0625 C 22.148438 -19.144531 22.15625 -18.210938 21.96875 -17.265625 C 21.769531 -16.328125 21.398438 -15.460938 20.859375 -14.671875 C 20.316406 -13.878906 19.644531 -13.25 18.84375 -12.78125 C 17.90625 -12.25 16.96875 -11.925781 16.03125 -11.8125 C 17.457031 -11.226562 18.609375 -10.332031 19.484375 -9.125 C 20.710938 -7.363281 21.117188 -5.445312 20.703125 -3.375 C 20.492188 -2.351562 20.097656 -1.441406 19.515625 -0.640625 C 18.941406 0.160156 18.222656 0.828125 17.359375 1.359375 C 15.617188 2.441406 13.675781 2.769531 11.53125 2.34375 L 1.953125 0.390625 Z M 13.78125 -12.390625 C 14.820312 -12.265625 15.828125 -12.410156 16.796875 -12.828125 C 17.765625 -13.253906 18.597656 -13.875 19.296875 -14.6875 C 19.992188 -15.507812 20.453125 -16.457031 20.671875 -17.53125 C 20.898438 -18.664062 20.832031 -19.753906 20.46875 -20.796875 C 20.101562 -21.847656 19.53125 -22.757812 18.75 -23.53125 C 17.96875 -24.300781 17.050781 -24.796875 16 -25.015625 L 13.390625 -25.546875 C 13.035156 -25.585938 12.597656 -25.597656 12.078125 -25.578125 C 11.554688 -25.566406 11.257812 -25.378906 11.1875 -25.015625 L 8.828125 -13.40625 Z M 11.65625 1.765625 C 13.414062 2.117188 15.039062 1.734375 16.53125 0.609375 C 17.269531 0.078125 17.882812 -0.554688 18.375 -1.296875 C 18.863281 -2.035156 19.195312 -2.820312 19.375 -3.65625 C 19.539062 -4.5 19.539062 -5.367188 19.375 -6.265625 C 19.21875 -7.160156 18.898438 -7.972656 18.421875 -8.703125 C 17.484375 -10.316406 16.132812 -11.300781 14.375 -11.65625 L 14.328125 -11.671875 L 14.328125 -11.71875 L 13.671875 -11.84375 C 13.640625 -11.851562 13.585938 -11.859375 13.515625 -11.859375 C 13.453125 -11.859375 13.394531 -11.863281 13.34375 -11.875 L 13.3125 -11.875 L 13.3125 -11.921875 L 8.71875 -12.859375 L 6.1875 -0.34375 C 6.113281 -0.0078125 6.3125 0.273438 6.78125 0.515625 C 7.25 0.753906 7.660156 0.921875 8.015625 1.015625 Z M 11.65625 1.765625 "/></g></g></g><g fill="#3e3e3a" fill-opacity="1"><g transform="translate(821.340987, 479.074664)"><g><path d="M 12.984375 5.09375 C 11.441406 4.5625 10.113281 3.6875 9 2.46875 C 7.894531 1.257812 7.039062 -0.171875 6.4375 -1.828125 C 5.84375 -3.484375 5.535156 -5.226562 5.515625 -7.0625 C 5.492188 -8.90625 5.796875 -10.722656 6.421875 -12.515625 C 7.046875 -14.335938 7.929688 -15.972656 9.078125 -17.421875 C 10.234375 -18.867188 11.550781 -20.050781 13.03125 -20.96875 C 14.507812 -21.882812 16.054688 -22.476562 17.671875 -22.75 C 19.296875 -23.03125 20.878906 -22.90625 22.421875 -22.375 L 22.75 -22.265625 C 24.320312 -21.722656 25.660156 -20.84375 26.765625 -19.625 C 27.878906 -18.414062 28.726562 -16.984375 29.3125 -15.328125 C 29.894531 -13.679688 30.191406 -11.9375 30.203125 -10.09375 C 30.222656 -8.257812 29.925781 -6.445312 29.3125 -4.65625 C 28.6875 -2.863281 27.800781 -1.242188 26.65625 0.203125 C 25.519531 1.660156 24.21875 2.851562 22.75 3.78125 C 21.289062 4.71875 19.753906 5.328125 18.140625 5.609375 C 16.523438 5.890625 14.914062 5.753906 13.3125 5.203125 Z M 10.21875 2.671875 C 12.15625 4.410156 14.414062 5.1875 17 5 C 18.507812 4.8125 19.976562 4.257812 21.40625 3.34375 C 22.84375 2.425781 24.128906 1.234375 25.265625 -0.234375 C 26.410156 -1.710938 27.296875 -3.347656 27.921875 -5.140625 C 28.597656 -7.140625 28.898438 -9.148438 28.828125 -11.171875 C 28.765625 -13.191406 28.363281 -15.046875 27.625 -16.734375 C 26.882812 -18.429688 25.847656 -19.75 24.515625 -20.6875 C 24.160156 -20.914062 23.804688 -21.117188 23.453125 -21.296875 C 23.109375 -21.472656 22.742188 -21.625 22.359375 -21.75 C 22.015625 -21.875 21.644531 -21.984375 21.25 -22.078125 C 20.863281 -22.179688 20.472656 -22.222656 20.078125 -22.203125 C 18.429688 -22.265625 16.789062 -21.859375 15.15625 -20.984375 C 13.53125 -20.109375 12.0625 -18.898438 10.75 -17.359375 C 9.445312 -15.828125 8.457031 -14.0625 7.78125 -12.0625 C 7.15625 -10.269531 6.847656 -8.4375 6.859375 -6.5625 C 6.878906 -4.695312 7.175781 -2.960938 7.75 -1.359375 C 8.320312 0.242188 9.144531 1.585938 10.21875 2.671875 Z M 10.21875 2.671875 "/></g></g></g><g fill="#3e3e3a" fill-opacity="1"><g transform="translate(856.347946, 491.808926)"><g><path d="M 12.234375 6.640625 C 10.617188 5.816406 9.375 4.710938 8.5 3.328125 C 7.625 1.941406 7.171875 0.394531 7.140625 -1.3125 C 7.117188 -3.019531 7.566406 -4.773438 8.484375 -6.578125 L 16.28125 -21.828125 C 16.394531 -22.117188 16.265625 -22.425781 15.890625 -22.75 C 15.515625 -23.082031 15.171875 -23.351562 14.859375 -23.5625 L 14.40625 -23.796875 L 14.671875 -24.3125 L 20.515625 -21.328125 L 20.25 -20.8125 L 19.796875 -21.046875 C 19.453125 -21.171875 19.035156 -21.289062 18.546875 -21.40625 C 18.066406 -21.519531 17.734375 -21.429688 17.546875 -21.140625 L 9.765625 -5.921875 C 9.097656 -4.609375 8.695312 -3.273438 8.5625 -1.921875 C 8.425781 -0.578125 8.539062 0.675781 8.90625 1.84375 C 9.28125 2.914062 9.75 3.785156 10.3125 4.453125 C 10.882812 5.128906 11.609375 5.691406 12.484375 6.140625 C 13.929688 6.878906 15.398438 7.164062 16.890625 7 C 18.390625 6.84375 19.785156 6.285156 21.078125 5.328125 C 22.378906 4.378906 23.441406 3.097656 24.265625 1.484375 L 32.03125 -13.6875 C 32.195312 -14.019531 32.085938 -14.351562 31.703125 -14.6875 C 31.316406 -15.019531 30.96875 -15.285156 30.65625 -15.484375 L 30.21875 -15.703125 L 30.484375 -16.21875 L 35.515625 -13.65625 L 35.25 -13.140625 L 34.828125 -13.359375 C 34.492188 -13.484375 34.070312 -13.601562 33.5625 -13.71875 C 33.0625 -13.84375 32.726562 -13.738281 32.5625 -13.40625 L 24.796875 1.765625 C 23.910156 3.503906 22.773438 4.875 21.390625 5.875 C 20.015625 6.875 18.53125 7.445312 16.9375 7.59375 C 15.351562 7.75 13.785156 7.429688 12.234375 6.640625 Z M 12.234375 6.640625 "/></g></g></g><g fill="#3e3e3a" fill-opacity="1"><g transform="translate(888.528204, 508.976135)"><g><path d="M 8.796875 5.453125 C 9.359375 5.847656 9.890625 6.128906 10.390625 6.296875 C 10.890625 6.460938 11.238281 6.40625 11.4375 6.125 L 26.453125 -15.25 L 19.3125 -20.265625 C 19.070312 -20.429688 18.757812 -20.476562 18.375 -20.40625 C 18 -20.332031 17.648438 -20.222656 17.328125 -20.078125 C 17.003906 -19.941406 16.8125 -19.851562 16.75 -19.8125 L 16.484375 -20 L 17.890625 -22 L 36.859375 -8.6875 L 35.453125 -6.6875 L 35.171875 -6.890625 C 35.203125 -6.953125 35.222656 -7.15625 35.234375 -7.5 C 35.253906 -7.851562 35.238281 -8.222656 35.1875 -8.609375 C 35.132812 -8.992188 34.988281 -9.269531 34.75 -9.4375 L 27.59375 -14.453125 L 12.578125 6.921875 C 12.378906 7.203125 12.453125 7.554688 12.796875 7.984375 C 13.140625 8.410156 13.597656 8.820312 14.171875 9.21875 L 13.828125 9.703125 L 8.453125 5.9375 Z M 8.796875 5.453125 "/></g></g></g><g fill="#3e3e3a" fill-opacity="1"><g transform="translate(917.880698, 530.752186)"><g><path d="M 1.875 0.890625 L 2.234375 1.21875 C 2.535156 1.445312 2.914062 1.675781 3.375 1.90625 C 3.84375 2.144531 4.191406 2.132812 4.421875 1.875 L 21.0625 -17.078125 C 21.269531 -17.347656 21.234375 -17.695312 20.953125 -18.125 C 20.679688 -18.550781 20.40625 -18.894531 20.125 -19.15625 L 19.765625 -19.484375 L 20.140625 -19.921875 L 25.078125 -15.578125 L 24.703125 -15.140625 L 24.3125 -15.484375 C 24.03125 -15.710938 23.65625 -15.941406 23.1875 -16.171875 C 22.726562 -16.398438 22.382812 -16.390625 22.15625 -16.140625 L 5.515625 2.8125 C 5.285156 3.070312 5.3125 3.414062 5.59375 3.84375 C 5.882812 4.28125 6.160156 4.628906 6.421875 4.890625 L 6.8125 5.234375 L 6.4375 5.65625 L 1.5 1.3125 Z M 1.875 0.890625 "/></g></g></g><g fill="#3e3e3a" fill-opacity="1"><g transform="translate(932.85739, 543.945192)"><g><path d="M 9.15625 10.484375 C 8.050781 9.285156 7.304688 7.890625 6.921875 6.296875 C 6.535156 4.703125 6.472656 3.035156 6.734375 1.296875 C 7.003906 -0.441406 7.570312 -2.117188 8.4375 -3.734375 C 9.300781 -5.359375 10.429688 -6.8125 11.828125 -8.09375 C 13.253906 -9.382812 14.820312 -10.390625 16.53125 -11.109375 C 18.238281 -11.835938 19.960938 -12.25 21.703125 -12.34375 C 23.441406 -12.445312 25.082031 -12.226562 26.625 -11.6875 C 28.175781 -11.15625 29.503906 -10.289062 30.609375 -9.09375 L 30.84375 -8.828125 C 31.957031 -7.597656 32.710938 -6.1875 33.109375 -4.59375 C 33.503906 -3 33.5625 -1.335938 33.28125 0.390625 C 33.007812 2.128906 32.4375 3.8125 31.5625 5.4375 C 30.6875 7.0625 29.546875 8.507812 28.140625 9.78125 C 26.628906 11.164062 24.929688 12.226562 23.046875 12.96875 C 21.160156 13.71875 19.273438 14.085938 17.390625 14.078125 C 15.515625 14.066406 13.78125 13.671875 12.1875 12.890625 C 12.289062 13.003906 12.398438 13.125 12.515625 13.25 C 12.628906 13.382812 12.753906 13.5 12.890625 13.59375 C 14.421875 14.90625 16.347656 15.828125 18.671875 16.359375 C 18.691406 16.347656 18.707031 16.347656 18.71875 16.359375 C 18.726562 16.367188 18.734375 16.375 18.734375 16.375 L 18.578125 16.921875 L 18.546875 16.953125 L 15.421875 17.078125 C 15.398438 17.054688 15.125 16.800781 14.59375 16.3125 C 14.0625 15.820312 13.429688 15.207031 12.703125 14.46875 Z M 10.046875 10.546875 C 10.410156 10.847656 10.796875 11.144531 11.203125 11.4375 C 11.441406 11.625 11.691406 11.785156 11.953125 11.921875 C 12.210938 12.066406 12.46875 12.203125 12.71875 12.328125 C 14.144531 12.898438 15.703125 13.128906 17.390625 13.015625 C 19.085938 12.898438 20.789062 12.46875 22.5 11.71875 C 24.207031 10.976562 25.757812 9.96875 27.15625 8.6875 C 28.71875 7.269531 29.953125 5.65625 30.859375 3.84375 C 31.773438 2.039062 32.3125 0.21875 32.46875 -1.625 C 32.632812 -3.46875 32.359375 -5.125 31.640625 -6.59375 C 31.441406 -6.96875 31.234375 -7.3125 31.015625 -7.625 C 30.796875 -7.945312 30.546875 -8.253906 30.265625 -8.546875 C 30.023438 -8.816406 29.753906 -9.085938 29.453125 -9.359375 C 29.148438 -9.640625 28.828125 -9.875 28.484375 -10.0625 C 27.066406 -10.894531 25.429688 -11.316406 23.578125 -11.328125 C 21.722656 -11.335938 19.851562 -10.976562 17.96875 -10.25 C 16.082031 -9.519531 14.359375 -8.445312 12.796875 -7.03125 C 11.398438 -5.75 10.257812 -4.285156 9.375 -2.640625 C 8.488281 -1.003906 7.910156 0.648438 7.640625 2.328125 C 7.378906 4.015625 7.460938 5.585938 7.890625 7.046875 C 8.171875 7.734375 8.476562 8.375 8.8125 8.96875 C 9.144531 9.5625 9.554688 10.085938 10.046875 10.546875 Z M 10.046875 10.546875 "/></g></g></g><g fill="#3e3e3a" fill-opacity="1"><g transform="translate(957.471827, 571.905641)"><g><path d="M 7.546875 11.703125 C 6.523438 10.203125 5.960938 8.632812 5.859375 7 C 5.753906 5.363281 6.097656 3.785156 6.890625 2.265625 C 7.691406 0.753906 8.925781 -0.566406 10.59375 -1.703125 L 24.75 -11.359375 C 25 -11.554688 25.035156 -11.882812 24.859375 -12.34375 C 24.691406 -12.8125 24.519531 -13.210938 24.34375 -13.546875 L 24.046875 -13.96875 L 24.53125 -14.296875 L 28.234375 -8.875 L 27.75 -8.546875 L 27.453125 -8.96875 C 27.222656 -9.25 26.921875 -9.554688 26.546875 -9.890625 C 26.171875 -10.222656 25.832031 -10.304688 25.53125 -10.140625 L 11.40625 -0.515625 C 10.1875 0.304688 9.195312 1.28125 8.4375 2.40625 C 7.675781 3.53125 7.171875 4.691406 6.921875 5.890625 C 6.734375 7.015625 6.726562 8.007812 6.90625 8.875 C 7.082031 9.738281 7.453125 10.578125 8.015625 11.390625 C 8.929688 12.734375 10.082031 13.6875 11.46875 14.25 C 12.851562 14.820312 14.34375 15 15.9375 14.78125 C 17.53125 14.570312 19.078125 13.957031 20.578125 12.9375 L 34.65625 3.328125 C 34.96875 3.117188 35.035156 2.78125 34.859375 2.3125 C 34.679688 1.84375 34.503906 1.441406 34.328125 1.109375 L 34.046875 0.703125 L 34.53125 0.375 L 37.71875 5.046875 L 37.234375 5.375 L 36.96875 4.984375 C 36.738281 4.710938 36.429688 4.398438 36.046875 4.046875 C 35.660156 3.703125 35.3125 3.632812 35 3.84375 L 20.921875 13.453125 C 19.304688 14.546875 17.648438 15.195312 15.953125 15.40625 C 14.265625 15.613281 12.6875 15.40625 11.21875 14.78125 C 9.75 14.164062 8.523438 13.140625 7.546875 11.703125 Z M 7.546875 11.703125 "/></g></g></g><g fill="#3e3e3a" fill-opacity="1"><g transform="translate(977.415677, 602.570484)"><g><path d="M 10.671875 15.453125 L 10.96875 16.046875 L 8.03125 15.8125 L 0.90625 1.78125 L 1.40625 1.53125 L 1.625 1.96875 C 1.8125 2.289062 2.078125 2.640625 2.421875 3.015625 C 2.765625 3.390625 3.09375 3.5 3.40625 3.34375 L 25.890625 -8.0625 C 26.097656 -8.175781 26.203125 -8.375 26.203125 -8.65625 C 26.210938 -8.9375 26.164062 -9.238281 26.0625 -9.5625 C 25.957031 -9.882812 25.851562 -10.160156 25.75 -10.390625 C 25.644531 -10.628906 25.59375 -10.75 25.59375 -10.75 L 26.140625 -11.015625 L 33.125 2.765625 L 30.9375 3.875 L 30.8125 3.625 C 30.851562 3.5625 30.96875 3.378906 31.15625 3.078125 C 31.34375 2.773438 31.5 2.441406 31.625 2.078125 C 31.75 1.710938 31.75 1.398438 31.625 1.140625 L 27.390625 -7.203125 L 16.96875 -1.90625 L 21.234375 6.5 C 21.328125 6.6875 21.554688 6.785156 21.921875 6.796875 C 22.296875 6.804688 22.484375 6.8125 22.484375 6.8125 L 22.609375 7.078125 L 20.375 8.21875 L 20.25 7.953125 C 20.25 7.953125 20.347656 7.800781 20.546875 7.5 C 20.742188 7.195312 20.796875 6.953125 20.703125 6.765625 L 16.4375 -1.640625 L 3.203125 5.078125 L 7.828125 14.203125 C 8.015625 14.566406 8.316406 14.832031 8.734375 15 C 9.148438 15.164062 9.550781 15.28125 9.9375 15.34375 C 10.332031 15.414062 10.578125 15.453125 10.671875 15.453125 Z M 10.671875 15.453125 "/></g></g></g><g clip-path="url(#583dcb208e)"><path fill="#7d8f77" d="M 733.828125 966.316406 C 594.847656 966.316406 481.644531 853.113281 481.644531 713.960938 C 481.644531 574.808594 594.847656 461.777344 733.828125 461.777344 C 872.8125 461.777344 986.015625 574.976562 986.015625 713.960938 C 986.183594 853.113281 872.984375 966.316406 733.828125 966.316406 Z M 733.828125 466.046875 C 597.066406 466.046875 485.914062 577.199219 485.914062 713.960938 C 485.914062 850.726562 597.238281 962.046875 733.828125 962.046875 C 870.421875 962.046875 981.917969 850.726562 981.917969 713.960938 C 981.917969 577.199219 870.59375 466.046875 733.828125 466.046875 Z M 733.828125 466.046875 " fill-opacity="1" fill-rule="nonzero"/></g><g clip-path="url(#d80345d797)"><g transform="matrix(1, 0, 0, 1, 853, 648)"><g clip-path="url(#9485c4e5bd)"><g clip-path="url(#f12f3ae1f8)"><path fill="#7d8f77" d="M -86.835938 318.316406 C 52.148438 318.316406 165.347656 205.113281 165.347656 65.960938 C 165.347656 -73.191406 52.148438 -186.222656 -86.835938 -186.222656 C -225.820312 -186.222656 -339.019531 -73.023438 -339.019531 65.960938 C -339.191406 205.113281 -225.988281 318.316406 -86.835938 318.316406 Z M -86.835938 -181.953125 C 49.925781 -181.953125 161.078125 -70.800781 161.078125 65.960938 C 161.078125 202.726562 49.757812 314.046875 -86.835938 314.046875 C -223.429688 314.046875 -334.921875 202.726562 -334.921875 65.960938 C -334.921875 -70.800781 -223.597656 -181.953125 -86.835938 -181.953125 Z M -86.835938 -181.953125 " fill-opacity="1" fill-rule="nonzero"/></g></g></g></g></svg>